<svg width="124" height="124" viewBox="0 0 181 181" fill="none" xmlns="http://www.w3.org/2000/svg">
<rect width="181" height="181" rx="90.5" fill="white"/>
<g clip-path="url(#clip0_236_601)">
<path d="M91 164C131.869 164 165 130.869 165 90C165 49.1309 131.869 16 91 16C50.1309 16 17 49.1309 17 90C17 130.869 50.1309 164 91 164Z" fill="#2F2E41"/>
<path fill-rule="evenodd" clip-rule="evenodd" d="M72.6914 108.632L110.786 108.921V139.858L72.6914 139.568V108.632Z" fill="#F9D0A4"/>
<path fill-rule="evenodd" clip-rule="evenodd" d="M122.302 157.067C112.619 161.577 102.076 163.941 91.3944 163.999C80.7127 164.057 70.1446 161.807 60.4131 157.402V131.95H122.3L122.302 157.067Z" fill="#53D86A"/>
<path fill-rule="evenodd" clip-rule="evenodd" d="M96.9943 163.761C95.0178 163.919 93.0197 163.998 91.0001 164C89.4754 164 87.9627 163.955 86.4619 163.864L88.9286 142.339H94.7001L96.9943 163.761Z" fill="#FE9526"/>
<path fill-rule="evenodd" clip-rule="evenodd" d="M78.4441 162.879C70.2851 161.36 62.4057 158.604 55.0778 154.708C48.0394 150.791 41.6844 145.756 36.2617 139.8L39.3367 132.376L72.6846 117.5C72.6846 129.982 76.7821 149.784 78.4441 162.879Z" fill="#676779"/>
<path opacity="0.11" fill-rule="evenodd" clip-rule="evenodd" d="M110.793 108.821V116.559C99.461 129.795 77.8094 127.922 72.9551 108.387L110.793 108.821Z" fill="#167FFC"/>
<path fill-rule="evenodd" clip-rule="evenodd" d="M91.5482 36.1931C142.512 36.1931 122.65 120.649 91.5482 120.649C62.1709 120.649 40.584 36.1931 91.5482 36.1931Z" fill="#FFDFBE"/>
<path fill-rule="evenodd" clip-rule="evenodd" d="M60.9805 73.5859C53.6284 76.7926 59.8789 91.9925 64.5057 91.9254C62.5865 85.9782 61.4027 79.8208 60.9805 73.5859ZM122.707 73.5835C130.059 76.7902 123.809 91.9925 119.184 91.923C121.102 85.9764 122.285 79.8175 122.707 73.5835Z" fill="#F9D0A4"/>
<path fill-rule="evenodd" clip-rule="evenodd" d="M69.521 50.313C61.5367 58.5943 64.3458 81.5175 64.3458 81.5175L61.8312 80.3321C46.1356 19.518 137.589 19.5156 121.805 80.3321L119.29 81.5175C119.29 81.5175 122.102 58.5943 114.117 50.313C104.253 59.8803 79.3302 59.83 69.521 50.313Z" fill="#444449"/>
<path fill-rule="evenodd" clip-rule="evenodd" d="M105.051 162.666C121.233 159.541 135.907 151.096 146.74 138.675L144.129 132.374L110.784 117.497C110.784 129.979 106.713 149.571 105.051 162.666Z" fill="#676779"/>
<path fill-rule="evenodd" clip-rule="evenodd" d="M110.786 116.535L91.8047 132.017L107.546 146.178C107.546 146.178 111.742 122.938 110.786 116.535Z" fill="white"/>
<path fill-rule="evenodd" clip-rule="evenodd" d="M72.6869 116.535L91.8192 132.017L75.9056 146.178C75.9056 146.178 71.7242 122.938 72.6869 116.535Z" fill="white"/>
<path fill-rule="evenodd" clip-rule="evenodd" d="M84.3164 138.68L91.829 131.931L99.3415 138.68L91.829 145.426L84.3164 138.68Z" fill="#FE9526"/>
<path fill-rule="evenodd" clip-rule="evenodd" d="M78.7071 162.977C75.6492 162.466 72.6265 161.762 69.6571 160.87C69.5641 160.798 69.473 160.724 69.3841 160.647L60.9184 145.344L71.7933 137.537H60.4131L62.8486 121.13L72.6913 114.906C73.1176 132.556 76.9038 152.399 78.7071 162.977ZM104.758 162.721C106.166 162.486 107.56 162.161 108.942 161.802C110.574 161.37 112.198 160.907 113.813 160.415L114.134 160.312L122.542 145.189L111.667 137.425H123.047L120.612 121.099L110.769 114.906C110.343 132.465 106.559 152.196 104.758 162.721Z" fill="#434355"/>
</g>
<defs>
<clipPath id="clip0_236_601">
<rect width="148" height="148" fill="white" transform="translate(17 16)"/>
</clipPath>
</defs>
</svg>
