<svg width="20" height="20" viewBox="0 0 24 23" fill="none" xmlns="http://www.w3.org/2000/svg">
<path d="M12 0.0516357L24 4.85164V6.45163H22.4C22.4 6.6683 22.3146 6.8558 22.1438 7.01413C21.9729 7.17247 21.7708 7.25164 21.5375 7.25164H2.4625C2.22917 7.25164 2.02708 7.17247 1.85625 7.01413C1.68542 6.8558 1.6 6.6683 1.6 6.45163H0V4.85164L12 0.0516357ZM3.2 8.05163H6.4V17.6516H8V8.05163H11.2V17.6516H12.8V8.05163H16V17.6516H17.6V8.05163H20.8V17.6516H21.5375C21.7708 17.6516 21.9729 17.7308 22.1438 17.8891C22.3146 18.0475 22.4 18.235 22.4 18.4516V19.2516H1.6V18.4516C1.6 18.235 1.68542 18.0475 1.85625 17.8891C2.02708 17.7308 2.22917 17.6516 2.4625 17.6516H3.2V8.05163ZM23.1375 20.0516C23.3708 20.0516 23.5729 20.1308 23.7438 20.2891C23.9146 20.4475 24 20.635 24 20.8516V22.4516H0V20.8516C0 20.635 0.0854152 20.4475 0.256246 20.2891C0.427085 20.1308 0.62917 20.0516 0.8625 20.0516H23.1375Z" fill="#2F2E41"/>
</svg>
