<svg width="20" height="20" viewBox="0 0 24 24" fill="none" xmlns="http://www.w3.org/2000/svg">
<path d="M20.2498 16.6066V7.39356C20.7616 7.2624 21.2296 6.99816 21.6062 6.62765C21.9829 6.25714 22.2548 5.79356 22.3943 5.28398C22.5338 4.77441 22.536 4.23698 22.4007 3.72628C22.2653 3.21557 21.9973 2.74978 21.6237 2.37619C21.2501 2.0026 20.7843 1.73452 20.2736 1.59918C19.7629 1.46383 19.2255 1.46604 18.7159 1.60557C18.2063 1.7451 17.7427 2.01699 17.3722 2.39364C17.0017 2.77028 16.7375 3.23826 16.6063 3.75006H7.39331C7.26216 3.23826 6.99791 2.77028 6.6274 2.39364C6.25689 2.01699 5.79331 1.7451 5.28374 1.60557C4.77416 1.46604 4.23674 1.46383 3.72603 1.59918C3.21533 1.73452 2.74953 2.0026 2.37595 2.37619C2.00236 2.74978 1.73428 3.21557 1.59893 3.72628C1.46359 4.23698 1.46579 4.77441 1.60532 5.28398C1.74486 5.79356 2.01675 6.25714 2.39339 6.62765C2.77003 6.99816 3.23801 7.2624 3.74981 7.39356V16.6066C3.23801 16.7377 2.77003 17.002 2.39339 17.3725C2.01675 17.743 1.74486 18.2066 1.60532 18.7161C1.46579 19.2257 1.46359 19.7631 1.59893 20.2738C1.73428 20.7845 2.00236 21.2503 2.37595 21.6239C2.74953 21.9975 3.21533 22.2656 3.72603 22.4009C4.23674 22.5363 4.77416 22.5341 5.28374 22.3945C5.79331 22.255 6.25689 21.9831 6.6274 21.6065C6.99791 21.2298 7.26216 20.7619 7.39331 20.2501H16.6063C16.7375 20.7619 17.0017 21.2298 17.3722 21.6065C17.7427 21.9831 18.2063 22.255 18.7159 22.3945C19.2255 22.5341 19.7629 22.5363 20.2736 22.4009C20.7843 22.2656 21.2501 21.9975 21.6237 21.6239C21.9973 21.2503 22.2653 20.7845 22.4007 20.2738C22.536 19.7631 22.5338 19.2257 22.3943 18.7161C22.2548 18.2066 21.9829 17.743 21.6062 17.3725C21.2296 17.002 20.7616 16.7377 20.2498 16.6066ZM19.4998 3.00006C19.7965 3.00006 20.0865 3.08803 20.3332 3.25285C20.5798 3.41767 20.7721 3.65194 20.8856 3.92603C20.9992 4.20012 21.0289 4.50172 20.971 4.79269C20.9131 5.08366 20.7702 5.35094 20.5605 5.56072C20.3507 5.77049 20.0834 5.91336 19.7924 5.97123C19.5015 6.02911 19.1999 5.99941 18.9258 5.88587C18.6517 5.77234 18.4174 5.58008 18.2526 5.33341C18.0878 5.08674 17.9998 4.79673 17.9998 4.50006C18.0002 4.10235 18.1584 3.72105 18.4396 3.43983C18.7208 3.15862 19.1021 3.00045 19.4998 3.00006ZM2.99981 4.50006C2.99981 4.20338 3.08779 3.91337 3.25261 3.6667C3.41743 3.42003 3.6517 3.22777 3.92579 3.11424C4.19988 3.0007 4.50148 2.971 4.79245 3.02888C5.08342 3.08676 5.35069 3.22962 5.56047 3.4394C5.77025 3.64917 5.91311 3.91645 5.97099 4.20742C6.02887 4.49839 5.99916 4.79999 5.88563 5.07408C5.7721 5.34817 5.57984 5.58244 5.33317 5.74726C5.08649 5.91208 4.79648 6.00006 4.49981 6.00006C4.10211 5.99966 3.72081 5.8415 3.43959 5.56028C3.15837 5.27906 3.00021 4.89776 2.99981 4.50006ZM4.49981 21.0001C4.20314 21.0001 3.91313 20.9121 3.66646 20.7473C3.41978 20.5824 3.22752 20.3482 3.11399 20.0741C3.00046 19.8 2.97076 19.4984 3.02863 19.2074C3.08651 18.9164 3.22937 18.6492 3.43915 18.4394C3.64893 18.2296 3.9162 18.0868 4.20718 18.0289C4.49815 17.971 4.79975 18.0007 5.07384 18.1142C5.34793 18.2278 5.58219 18.42 5.74702 18.6667C5.91184 18.9134 5.99981 19.2034 5.99981 19.5001C5.99941 19.8978 5.84125 20.2791 5.56003 20.5603C5.27881 20.8415 4.89751 20.9997 4.49981 21.0001ZM16.6063 18.7501H7.39331C7.25897 18.2344 6.98951 17.7639 6.61272 17.3871C6.23593 17.0104 5.76546 16.7409 5.24981 16.6066V7.39356C5.76542 7.25914 6.23586 6.98965 6.61263 6.61288C6.98941 6.2361 7.25889 5.76566 7.39331 5.25006H16.6063C16.7407 5.7657 17.0101 6.23618 17.3869 6.61296C17.7637 6.98975 18.2342 7.25921 18.7498 7.39356V16.6066C18.2341 16.7408 17.7636 17.0103 17.3868 17.3871C17.01 17.7639 16.7406 18.2344 16.6063 18.7501ZM19.4998 21.0001C19.2031 21.0001 18.9131 20.9121 18.6665 20.7473C18.4198 20.5824 18.2275 20.3482 18.114 20.0741C18.0005 19.8 17.9708 19.4984 18.0286 19.2074C18.0865 18.9164 18.2294 18.6492 18.4391 18.4394C18.6489 18.2296 18.9162 18.0868 19.2072 18.0289C19.4981 17.971 19.7997 18.0007 20.0738 18.1142C20.3479 18.2278 20.5822 18.42 20.747 18.6667C20.9118 18.9134 20.9998 19.2034 20.9998 19.5001C20.9992 19.8977 20.841 20.2789 20.5598 20.5601C20.2786 20.8412 19.8975 20.9995 19.4998 21.0001Z" fill="#F2F8FF"/>
</svg>
