<svg width="104" height="104" viewBox="0 0 104 104" fill="none" xmlns="http://www.w3.org/2000/svg">
<rect width="104" height="104" rx="8" fill="white"/>
<path d="M51.2398 50.1001C55.647 50.1001 59.2198 46.5274 59.2198 42.1201C59.2198 37.7129 55.647 34.1401 51.2398 34.1401C46.8325 34.1401 43.2598 37.7129 43.2598 42.1201C43.2598 46.5274 46.8325 50.1001 51.2398 50.1001Z" fill="#2F2E41"/>
<path fill-rule="evenodd" clip-rule="evenodd" d="M38.6992 64.9199C38.6992 65.8271 39.0602 66.6964 39.7015 67.3376C40.3427 67.9789 41.212 68.3399 42.1192 68.3399C46.4892 68.3399 55.9892 68.3399 60.3592 68.3399C61.2665 68.3399 62.1357 67.9789 62.777 67.3376C63.4182 66.6964 63.7792 65.8271 63.7792 64.9199C63.7792 57.9944 58.1647 52.3799 51.2392 52.3799C44.3137 52.3799 38.6992 57.9944 38.6992 64.9199Z" fill="#2F2E41"/>
</svg>
