<svg width="34" height="34" viewBox="0 0 34 34" fill="none" xmlns="http://www.w3.org/2000/svg">
<g clip-path="url(#clip0_231_413)">
<path d="M16.1399 7.83419V4.96558H16.5284L18.0324 7.21664V4.96558H18.396V7.83419H18.0075L16.5035 5.57814V7.83419H16.1399ZM16.11 29.035L15.3879 26.3108H15.7564L16.1698 28.0937C16.2196 28.283 16.2545 28.4673 16.2843 28.6515C16.3242 28.4835 16.3657 28.3158 16.4088 28.1485L16.9268 26.3058H17.365L17.7535 27.6903C17.8531 28.029 17.9228 28.3527 17.9627 28.6515C17.9975 28.4822 18.0424 28.283 18.1021 28.0589L18.5254 26.3108H18.889L18.142 29.035H17.7933L17.2206 26.9583C17.1907 26.8525 17.1625 26.7462 17.136 26.6395C17.1119 26.7464 17.0854 26.8527 17.0563 26.9583L16.4786 29.035H16.11ZM26.5486 18.2976V15.678H28.4411V15.9868H26.8972V16.7886H28.3464V17.0974H26.8972V17.9889H28.5008V18.2976H26.5486ZM5.49219 17.5655L5.89061 17.5257C5.90263 17.6674 5.94877 17.8041 6.02507 17.9241C6.09479 18.0237 6.20436 18.1084 6.34879 18.1731C6.49819 18.2379 6.66254 18.2727 6.84681 18.2727C6.99295 18.2743 7.13814 18.249 7.27511 18.198C7.38371 18.1594 7.47884 18.0903 7.54902 17.9988C7.60905 17.92 7.64221 17.824 7.64364 17.7249C7.64523 17.6292 7.61354 17.5359 7.554 17.461C7.47663 17.3729 7.37679 17.3075 7.26515 17.2717C7.07715 17.2086 6.88598 17.1554 6.69242 17.1123C6.47815 17.0693 6.26935 17.0025 6.06989 16.9131C5.93089 16.8457 5.8123 16.7426 5.72626 16.6143C5.6525 16.4947 5.61448 16.3564 5.61669 16.2159C5.61669 16.0516 5.66151 15.8972 5.75116 15.7577C5.84982 15.6127 5.99063 15.5014 6.15456 15.439C6.34299 15.3639 6.54438 15.3267 6.7472 15.3294C6.98626 15.3294 7.19542 15.3643 7.37969 15.444C7.55018 15.5103 7.6966 15.6267 7.79971 15.7778C7.90282 15.9289 7.95779 16.1077 7.9574 16.2906L7.54902 16.3205C7.54473 16.2322 7.52267 16.1457 7.48416 16.0661C7.44565 15.9865 7.39149 15.9155 7.32491 15.8573C7.19542 15.7577 7.01116 15.7029 6.76215 15.7029C6.50815 15.7029 6.3189 15.7527 6.19938 15.8424C6.14521 15.8818 6.10116 15.9335 6.07086 15.9932C6.04056 16.053 6.02487 16.119 6.02507 16.186C6.02507 16.3006 6.06491 16.3952 6.14958 16.4699C6.23424 16.5446 6.44839 16.6193 6.79203 16.699C7.14064 16.7787 7.37471 16.8484 7.5042 16.9032C7.68847 16.9878 7.82791 17.1024 7.91756 17.2319C8.00544 17.3737 8.05075 17.5378 8.0481 17.7047C8.04545 17.8715 7.99496 18.0341 7.90262 18.1731C7.79927 18.3269 7.65412 18.4478 7.48428 18.5218C7.05068 18.6929 6.56823 18.6929 6.13464 18.5218C5.94592 18.4447 5.78461 18.3128 5.67148 18.1433C5.55794 17.9717 5.49574 17.7713 5.49219 17.5655ZM17.5045 8.99956C17.5045 8.89653 17.4636 8.79773 17.3907 8.72488C17.3179 8.65203 17.2191 8.6111 17.116 8.6111C17.013 8.6111 16.9142 8.65203 16.8414 8.72488C16.7685 8.79773 16.7276 8.89653 16.7276 8.99956V24.9761C16.7276 25.0791 16.7685 25.178 16.8414 25.2508C16.9142 25.3237 17.013 25.3646 17.116 25.3646C17.2191 25.3646 17.3179 25.3237 17.3907 25.2508C17.4636 25.178 17.5045 25.0791 17.5045 24.9761V8.99956Z" fill="#F6F6F6"/>
<path d="M25.1012 17.381C25.2048 17.381 25.3043 17.3398 25.3776 17.2665C25.4509 17.1932 25.4921 17.0938 25.4921 16.9901C25.4921 16.8864 25.4509 16.7869 25.3776 16.7136C25.3043 16.6403 25.2048 16.5991 25.1012 16.5991H9.13455C9.03153 16.5991 8.93272 16.64 8.85987 16.7129C8.78702 16.7857 8.74609 16.8846 8.74609 16.9876C8.74609 17.0906 8.78702 17.1894 8.85987 17.2623C8.93272 17.3351 9.03153 17.376 9.13455 17.376L25.1012 17.381Z" fill="#F6F6F6"/>
<path d="M17.1182 13.5459C17.5703 13.5453 18.0181 13.6338 18.4359 13.8065C18.8537 13.9792 19.2334 14.2327 19.5531 14.5524C19.8727 14.8721 20.1262 15.2517 20.2989 15.6695C20.4716 16.0873 20.5602 16.5351 20.5595 16.9872C20.5609 17.4398 20.4728 17.8881 20.3004 18.3065C20.1279 18.7249 19.8746 19.1051 19.5548 19.4253C19.2351 19.7455 18.8552 19.9994 18.4371 20.1725C18.0189 20.3455 17.5707 20.4342 17.1182 20.4336C16.6653 20.4349 16.2165 20.3466 15.7978 20.1739C15.3791 20.0012 14.9986 19.7474 14.6784 19.4271C14.3581 19.1068 14.1043 18.7264 13.9315 18.3077C13.7588 17.8889 13.6706 17.4402 13.6719 16.9872C13.6712 16.5347 13.76 16.0865 13.933 15.6684C14.106 15.2502 14.3599 14.8704 14.6801 14.5506C15.0003 14.2309 15.3806 13.9775 15.799 13.8051C16.2174 13.6327 16.6657 13.5446 17.1182 13.5459ZM19.0057 15.0997C18.634 14.7212 18.1576 14.4624 17.6376 14.3568C17.1177 14.2511 16.5781 14.3034 16.0881 14.5069C15.5981 14.7104 15.1802 15.0558 14.8881 15.4987C14.5959 15.9416 14.443 16.4617 14.4488 16.9922C14.445 17.5219 14.5994 18.0406 14.8923 18.482C15.1852 18.9233 15.6032 19.2671 16.0928 19.4694C16.5823 19.6716 17.1211 19.7231 17.6401 19.6171C18.1591 19.5112 18.6346 19.2527 19.0057 18.8748C19.2548 18.6275 19.4524 18.3335 19.5873 18.0096C19.7222 17.6856 19.7917 17.3382 19.7917 16.9872C19.7917 16.6363 19.7222 16.2889 19.5873 15.9649C19.4524 15.641 19.2548 15.3469 19.0057 15.0997Z" fill="#F6F6F6"/>
<path d="M17.0003 3.84961C20.6359 3.84961 23.9229 5.32376 26.2984 7.70431C28.679 10.0799 30.1481 13.3668 30.1481 16.9974C30.1481 20.633 28.679 23.9199 26.2984 26.2955C25.0786 27.5181 23.6292 28.4875 22.0335 29.1482C20.4379 29.8089 18.7274 30.1477 17.0003 30.1452C15.2741 30.147 13.5646 29.8079 11.9698 29.1473C10.375 28.4866 8.92646 27.5175 7.70724 26.2955C6.48376 25.0761 5.51337 23.6269 4.85184 22.0312C4.19032 20.4355 3.85071 18.7248 3.85255 16.9974C3.85255 13.3668 5.32669 10.0799 7.70724 7.70431C8.92605 6.48142 10.3744 5.51137 11.9692 4.84987C13.564 4.18836 15.2738 3.84844 17.0003 3.84961ZM25.7357 8.26707C24.5901 7.11763 23.2286 6.20601 21.7295 5.58464C20.2303 4.96328 18.6231 4.64444 17.0003 4.64645C13.5889 4.64645 10.5011 6.03095 8.27001 8.26707C7.12116 9.41203 6.20988 10.7727 5.58853 12.271C4.96719 13.7692 4.64803 15.3754 4.64938 16.9974C4.64938 20.4089 6.03389 23.4966 8.27001 25.7327C9.41537 26.8807 10.7762 27.791 12.2745 28.4115C13.7727 29.032 15.3787 29.3504 17.0003 29.3484C20.4118 29.3484 23.4995 27.9688 25.7357 25.7327C26.8842 24.5868 27.7949 23.2251 28.4154 21.726C29.0359 20.2269 29.354 18.6199 29.3513 16.9974C29.3513 13.586 27.9718 10.4982 25.7357 8.26707Z" fill="#F6F6F6"/>
<path fill-rule="evenodd" clip-rule="evenodd" d="M19.0075 15.1006C18.6013 14.6967 18.0755 14.4347 17.5084 14.3536V16.5997H19.7595C19.6761 16.0338 19.4123 15.5048 19.0075 15.1006ZM19.7595 17.3766H17.5084V19.6277C18.0763 19.5455 18.6023 19.2819 19.008 18.8762C19.4137 18.4705 19.6773 17.9444 19.7595 17.3766ZM16.7315 19.6277V17.3816H14.4805C14.5627 17.9494 14.8263 18.4754 15.232 18.8811C15.6377 19.2868 16.1637 19.5455 16.7315 19.6277ZM14.4805 16.5997H16.7315V14.3486C16.1637 14.4308 15.6377 14.6944 15.232 15.1001C14.8263 15.5058 14.5627 16.0319 14.4805 16.5997Z" fill="#FE9526"/>
<path fill-rule="evenodd" clip-rule="evenodd" d="M13.6936 16.5995C13.7803 15.825 14.1277 15.1029 14.6788 14.5517C15.2299 14.0006 15.952 13.6532 16.7266 13.5666V8.9997C16.7266 8.89667 16.7675 8.79787 16.8403 8.72502C16.9132 8.65217 17.012 8.61124 17.115 8.61124C17.218 8.61124 17.3169 8.65217 17.3897 8.72502C17.4626 8.79787 17.5035 8.89667 17.5035 8.9997V13.5666C18.2797 13.6524 19.0035 14 19.5557 14.5522C20.108 15.1045 20.4556 15.8283 20.5414 16.6045H25.1033C25.1981 16.6153 25.2856 16.6606 25.3492 16.7318C25.4127 16.803 25.4478 16.895 25.4478 16.9905C25.4478 17.0859 25.4127 17.178 25.3492 17.2492C25.2856 17.3203 25.1981 17.3657 25.1033 17.3764H20.5364C20.4506 18.1527 20.103 18.8765 19.5508 19.4287C18.9985 19.9809 18.2747 20.3286 17.4985 20.4144V24.9763C17.4877 25.0711 17.4424 25.1586 17.3712 25.2221C17.3 25.2857 17.208 25.3208 17.1125 25.3208C17.0171 25.3208 16.925 25.2857 16.8538 25.2221C16.7827 25.1586 16.7373 25.0711 16.7266 24.9763V20.4094C15.9511 20.3238 15.2278 19.9769 14.6757 19.4257C14.1236 18.8744 13.7755 18.1518 13.6886 17.3764H9.12674C9.02371 17.3764 8.92491 17.3355 8.85206 17.2627C8.77921 17.1898 8.73828 17.091 8.73828 16.988C8.73828 16.885 8.77921 16.7861 8.85206 16.7133C8.92491 16.6404 9.02371 16.5995 9.12674 16.5995H13.6936ZM16.5025 7.83433H16.1339V4.96572H16.5224L18.0264 7.21678V4.96572H18.39V7.83433H18.0015L16.4975 5.57828L16.5025 7.83433ZM29.3514 16.9979C29.3514 13.5865 27.9669 10.4987 25.7308 8.26761C24.5853 7.11816 23.2238 6.20654 21.7246 5.58518C20.2255 4.96381 18.6183 4.64497 16.9955 4.64698C13.584 4.64698 10.4963 6.03148 8.26516 8.26761C7.11631 9.41256 6.20503 10.7733 5.58369 12.2715C4.96234 13.7697 4.64318 15.376 4.64454 16.9979C4.64454 20.4094 6.02904 23.4971 8.26516 25.7333C9.41053 26.8812 10.7714 27.7916 12.2696 28.412C13.7678 29.0325 15.3739 29.3509 16.9955 29.3489C20.4069 29.3489 23.4947 27.9694 25.7308 25.7333C26.8794 24.5873 27.7901 23.2256 28.4106 21.7265C29.0311 20.2274 29.3541 18.6204 29.3514 16.9979ZM26.5476 18.2978V15.6782H28.4401V15.987H26.8962V16.7888H28.3404V17.0975H26.8962V17.989H28.4998V18.2978H26.5476ZM7.3737 15.4441C7.54511 15.5097 7.6926 15.6257 7.79664 15.7769C7.90068 15.928 7.95639 16.1072 7.95639 16.2907L7.54801 16.3206C7.54371 16.2323 7.52165 16.1458 7.48315 16.0662C7.44464 15.9866 7.39048 15.9156 7.3239 15.8575C7.19939 15.7579 7.01014 15.7031 6.76611 15.7031C6.50714 15.7031 6.31789 15.7529 6.20335 15.8425C6.14826 15.8814 6.10325 15.9329 6.07206 15.9926C6.04088 16.0524 6.02442 16.1187 6.02406 16.1862C6.02406 16.3007 6.0639 16.3953 6.14856 16.47C6.23323 16.5447 6.44738 16.6194 6.79101 16.6991C7.13963 16.7788 7.3737 16.8485 7.50318 16.9033C7.68745 16.988 7.8269 17.1025 7.91654 17.232C8.00443 17.3739 8.04974 17.538 8.04709 17.7048C8.04444 17.8717 7.99394 18.0343 7.9016 18.1733C7.79826 18.327 7.6531 18.448 7.48326 18.5219C7.04967 18.6931 6.56722 18.6931 6.13362 18.5219C5.94491 18.4448 5.7836 18.313 5.67046 18.1434C5.55693 17.9718 5.49473 17.7714 5.49117 17.5657L5.88959 17.5258C5.90162 17.6676 5.94775 17.8042 6.02406 17.9243C6.09378 18.0239 6.20335 18.1085 6.34777 18.1733C6.49718 18.238 6.66153 18.2729 6.84579 18.2729C6.99194 18.2745 7.13712 18.2492 7.27409 18.1982C7.3827 18.1596 7.47782 18.0904 7.54801 17.999C7.60804 17.9201 7.6412 17.8241 7.64263 17.7251C7.64421 17.6293 7.61253 17.5361 7.55299 17.4611C7.47561 17.373 7.37578 17.3076 7.26413 17.2719C7.07614 17.2088 6.88497 17.1556 6.69141 17.1125C6.47714 17.0694 6.26833 17.0026 6.06888 16.9133C5.92988 16.8459 5.81128 16.7428 5.72524 16.6145C5.65148 16.4948 5.61347 16.3566 5.61568 16.216C5.61568 16.0517 5.6605 15.8973 5.75015 15.7579C5.8488 15.6128 5.98961 15.5016 6.15354 15.4391C6.34198 15.364 6.54336 15.3268 6.74619 15.3296C6.98524 15.3296 7.19441 15.3644 7.37868 15.4441H7.3737ZM16.114 29.0351L15.3919 26.311H15.7604L16.1738 28.0939C16.2236 28.2831 16.2584 28.4674 16.2883 28.6517C16.3282 28.4836 16.3697 28.3159 16.4128 28.1487L16.9308 26.306H17.369L17.7575 27.6905C17.8571 28.0291 17.9268 28.3529 17.9666 28.6517C18.0015 28.4823 18.0463 28.2831 18.1061 28.059L18.5294 26.311H18.893L18.1459 29.0351H17.7973L17.2246 26.9584C17.1947 26.8526 17.1664 26.7463 17.1399 26.6397C17.1159 26.7465 17.0893 26.8528 17.0602 26.9584L16.4825 29.0351H16.114Z" fill="#2F2E41"/>
</g>
<defs>
<clipPath id="clip0_231_413">
<rect width="34" height="34" fill="white"/>
</clipPath>
</defs>
</svg>
