<svg width="468" height="368" viewBox="0 0 509 401" fill="none" xmlns="http://www.w3.org/2000/svg">
<g clip-path="url(#clip0_290_915)">
<path d="M462.087 0.261887H0.197266V296.076H462.087V0.261887Z" fill="#E6E6E6"/>
<path d="M448.878 37.3643H13.4043V278.576H448.878V37.3643Z" fill="white"/>
<path d="M461.889 0H0V19.6227H461.889V0Z" fill="#6C63FF"/>
<path d="M14.5822 13.6691C16.5909 13.6691 18.2192 12.0408 18.2192 10.0322C18.2192 8.02356 16.5909 6.39525 14.5822 6.39525C12.5736 6.39525 10.9453 8.02356 10.9453 10.0322C10.9453 12.0408 12.5736 13.6691 14.5822 13.6691Z" fill="white"/>
<path d="M28.385 13.6691C30.3936 13.6691 32.0219 12.0408 32.0219 10.0322C32.0219 8.02356 30.3936 6.39525 28.385 6.39525C26.3764 6.39525 24.748 8.02356 24.748 10.0322C24.748 12.0408 26.3764 13.6691 28.385 13.6691Z" fill="white"/>
<path d="M42.1916 13.6691C44.2002 13.6691 45.8285 12.0408 45.8285 10.0322C45.8285 8.02356 44.2002 6.39525 42.1916 6.39525C40.183 6.39525 38.5547 8.02356 38.5547 10.0322C38.5547 12.0408 40.183 13.6691 42.1916 13.6691Z" fill="white"/>
<path d="M164.869 62.392H52.9727V253.548H164.869V62.392Z" fill="#E6E6E6"/>
<path d="M277.432 62.392H184.186V115.01H277.432V62.392Z" fill="#6C63FF"/>
<path d="M277.432 129.663H184.186V186.277H277.432V129.663Z" fill="#E6E6E6"/>
<path d="M277.432 200.93H184.186V253.548H277.432V200.93Z" fill="#E6E6E6"/>
<path d="M409.31 62.392H297.414V145.697H409.31V62.392Z" fill="#E6E6E6"/>
<path d="M409.31 170.243H297.414V253.548H409.31V170.243Z" fill="#E6E6E6"/>
<path d="M366.203 151.681V133.747C366.203 127.373 368.735 121.261 373.242 116.754C377.749 112.247 383.861 109.715 390.235 109.715C396.609 109.715 402.721 112.247 407.228 116.754C411.735 121.261 414.267 127.373 414.267 133.747V151.681C414.266 152.537 413.926 153.358 413.321 153.963C412.715 154.568 411.895 154.909 411.039 154.91H369.431C368.575 154.909 367.755 154.568 367.15 153.963C366.545 153.358 366.204 152.537 366.203 151.681Z" fill="#2F2E41"/>
<path d="M425.771 385.076L417.295 387.422L404.213 355.845L416.723 352.383L425.771 385.076Z" fill="#FFB8B8"/>
<path d="M410.57 386.676L426.917 382.152L429.765 392.444L403.126 399.817C402.752 398.465 402.648 397.053 402.819 395.661C402.991 394.269 403.435 392.925 404.126 391.705C404.817 390.484 405.742 389.412 406.848 388.549C407.954 387.687 409.218 387.05 410.57 386.676Z" fill="#2F2E41"/>
<path d="M337.399 391.596H328.604L324.42 357.673H337.401L337.399 391.596Z" fill="#FFB8B8"/>
<path d="M322.322 389.083H339.284V399.763H311.643C311.643 398.36 311.919 396.971 312.455 395.676C312.992 394.38 313.779 393.203 314.771 392.211C315.762 391.219 316.939 390.433 318.235 389.896C319.531 389.359 320.92 389.083 322.322 389.083Z" fill="#2F2E41"/>
<path d="M326.797 202.011C327.425 202.858 328.23 203.558 329.158 204.06C330.085 204.562 331.111 204.855 332.164 204.918C333.217 204.98 334.27 204.812 335.251 204.423C336.231 204.035 337.115 203.436 337.839 202.669L361.218 213.184L359.091 200.034L337.216 192.064C335.847 190.933 334.111 190.344 332.337 190.408C330.562 190.471 328.873 191.184 327.588 192.41C326.304 193.636 325.514 195.29 325.368 197.06C325.222 198.829 325.731 200.591 326.797 202.011Z" fill="#FFB8B8"/>
<path d="M375.371 281.093C368.026 281.093 360.422 279.999 354.03 276.744C350.637 275.051 347.63 272.675 345.197 269.767C342.765 266.858 340.958 263.478 339.892 259.839C336.561 249.294 340.76 238.935 344.821 228.917C347.337 222.709 349.714 216.845 350.331 211.066L350.546 209.014C351.506 199.797 352.336 191.838 356.928 188.852C359.309 187.305 362.509 187.216 366.714 188.582L406.202 201.409L404.75 276.368L404.51 276.448C404.303 276.517 390.383 281.093 375.371 281.093Z" fill="#2F2E41"/>
<path d="M366.024 165.246C366.024 165.246 385.394 159.507 400.458 161.659C400.458 161.659 391.85 209.005 394.719 224.788C397.589 240.57 344.862 230.885 355.623 215.821L359.209 197.886C359.209 197.886 352.036 190.712 358.492 182.104L366.024 165.246Z" fill="#6C63FF"/>
<path d="M356.497 279.672L332.625 275.196L340.959 211.058C341.52 209.267 354.43 168.63 360.294 166.431C364.551 164.932 368.905 163.723 373.326 162.811L374.175 162.641L369.388 169.821L350.332 215.485L356.497 279.672Z" fill="#2F2E41"/>
<path d="M344.06 383.736L313.217 378.596L330.526 307.918L356.282 211.261L356.536 212.977C356.556 213.105 358.962 225.732 394.665 220.129L394.979 220.08L395.066 220.386L438.217 372.855L403.073 378.712L371.018 267.471L344.06 383.736Z" fill="#2F2E41"/>
<path d="M386.809 291.674L386.828 291.132C386.849 290.529 388.971 230.605 388.263 206.505C387.551 182.323 395.38 161.382 395.459 161.173L395.523 161.005L395.696 160.955C405.825 158.062 414.613 166.698 414.7 166.786L414.824 166.909L411.939 190.709L424.289 277.254L386.809 291.674Z" fill="#2F2E41"/>
<path d="M385.297 154.492C395.028 154.492 402.917 146.604 402.917 136.873C402.917 127.142 395.028 119.253 385.297 119.253C375.566 119.253 367.678 127.142 367.678 136.873C367.678 146.604 375.566 154.492 385.297 154.492Z" fill="#FFB8B8"/>
<path d="M360.518 135.182C360.523 130.142 362.528 125.31 366.092 121.746C369.656 118.182 374.488 116.177 379.528 116.171H383.115C388.155 116.177 392.987 118.182 396.551 121.746C400.115 125.31 402.12 130.142 402.125 135.182V135.541H394.545L391.96 128.301L391.443 135.541H387.525L386.221 131.888L385.96 135.541H360.518V135.182Z" fill="#2F2E41"/>
<path d="M383.563 156.926C383.208 156.444 382.995 155.872 382.95 155.275C382.906 154.677 383.031 154.079 383.311 153.55C387.112 146.32 392.434 132.961 385.37 124.722L384.862 124.13H405.37V154.92L386.74 158.207C386.551 158.24 386.36 158.257 386.169 158.257C385.66 158.257 385.159 158.137 384.706 157.905C384.253 157.674 383.861 157.338 383.563 156.926Z" fill="#2F2E41"/>
<path d="M300.996 29.8043C286.646 17.6952 269.085 10.0183 250.451 7.70755C231.818 5.39681 212.914 8.55195 196.04 16.789C179.167 25.0261 165.051 37.9899 155.412 54.103C145.772 70.2161 141.023 88.7838 141.743 107.547C142.463 126.309 148.622 144.458 159.469 159.785C170.316 175.112 185.383 186.955 202.839 193.874C220.294 200.793 239.384 202.49 257.786 198.757C276.188 195.025 293.108 186.024 306.488 172.851L425.298 273.102C427.106 274.63 429.446 275.378 431.805 275.18C434.164 274.983 436.348 273.856 437.877 272.048C439.405 270.241 440.152 267.9 439.955 265.541C439.757 263.182 438.631 260.998 436.823 259.47L436.81 259.459L318 159.207C331.802 139.398 337.709 115.149 334.564 91.2122C331.418 67.2749 319.447 45.3751 300.996 29.8043ZM293.337 149.554C284.081 160.523 271.78 168.501 257.99 172.48C244.2 176.458 229.54 176.258 215.864 171.904C202.187 167.551 190.109 159.24 181.156 148.022C172.203 136.804 166.778 123.183 165.566 108.881C164.355 94.5801 167.411 80.2407 174.349 67.6764C181.287 55.1122 191.795 44.8874 204.544 38.2951C217.293 31.7029 231.711 29.0392 245.974 30.6409C260.237 32.2427 273.704 38.0379 284.674 47.2937C291.957 53.4393 297.958 60.9594 302.336 69.4244C306.713 77.8895 309.38 87.1338 310.184 96.6295C310.989 106.125 309.915 115.686 307.024 124.767C304.134 133.848 299.483 142.27 293.337 149.554Z" fill="#3F3D56"/>
<path opacity="0.3" d="M191.077 158.217C177.156 146.469 168.161 129.916 165.88 111.843C163.599 93.7706 168.198 75.5011 178.763 60.6623C177.375 62.0596 176.034 63.5231 174.739 65.0526C168.593 72.3359 163.942 80.7584 161.052 89.8392C158.161 98.9199 157.087 108.481 157.892 117.977C158.696 127.473 161.363 136.717 165.74 145.182C170.117 153.647 176.119 161.167 183.402 167.313C190.686 173.458 199.108 178.109 208.189 181C217.27 183.89 226.831 184.964 236.327 184.16C245.822 183.355 255.067 180.688 263.532 176.311C271.997 171.934 279.517 165.933 285.662 158.649C286.955 157.118 288.172 155.549 289.313 153.944C276.463 166.855 259.228 174.462 241.029 175.253C222.83 176.045 205 169.964 191.077 158.217Z" fill="black"/>
<path d="M390.955 232.814C391.979 233.064 393.046 233.087 394.081 232.88C395.115 232.674 396.091 232.243 396.941 231.619C397.791 230.994 398.493 230.191 398.999 229.265C399.504 228.34 399.801 227.315 399.868 226.262L424.569 219.406L414.528 210.651L392.61 218.504C390.835 218.51 389.123 219.166 387.799 220.349C386.475 221.532 385.631 223.16 385.427 224.924C385.223 226.687 385.673 228.465 386.692 229.919C387.711 231.373 389.228 232.403 390.955 232.814Z" fill="#FFB8B8"/>
<path d="M401.222 229.184L399.719 214.904L420.352 203.52L406.9 187.236L409.095 168.943L414.561 166.6L414.731 166.819C417.309 170.133 439.915 199.302 439.915 202.908C439.915 206.611 435.59 217.487 429.673 220.446C423.966 223.299 402.534 228.846 401.625 229.081L401.222 229.184Z" fill="#2F2E41"/>
<path d="M508.283 400.72H234.963C234.773 400.72 234.591 400.645 234.456 400.51C234.322 400.376 234.246 400.193 234.246 400.003C234.246 399.813 234.322 399.63 234.456 399.496C234.591 399.361 234.773 399.286 234.963 399.286H508.283C508.473 399.286 508.656 399.361 508.79 399.496C508.925 399.63 509 399.813 509 400.003C509 400.193 508.925 400.376 508.79 400.51C508.656 400.645 508.473 400.72 508.283 400.72Z" fill="#CCCCCC"/>
</g>
<defs>
<clipPath id="clip0_290_915">
<rect width="509" height="400.72" fill="white"/>
</clipPath>
</defs>
</svg>
