<svg width="20" height="22" viewBox="0 0 20 22" fill="none" xmlns="http://www.w3.org/2000/svg">
<path d="M9.80116 2.65776C9.80116 2.48371 9.8703 2.31679 9.99337 2.19372C10.1164 2.07065 10.2834 2.00151 10.4574 2.00151H18.713C18.8871 2.00151 19.054 2.07065 19.1771 2.19372C19.3001 2.31679 19.3693 2.48371 19.3693 2.65776C19.3693 2.83181 19.3001 2.99873 19.1771 3.1218C19.054 3.24487 18.8871 3.31401 18.713 3.31401H10.4574C10.2834 3.31401 10.1164 3.24487 9.99337 3.1218C9.8703 2.99873 9.80116 2.83181 9.80116 2.65776ZM18.713 4.7757H8.70741C8.53337 4.7757 8.36645 4.84484 8.24337 4.96791C8.1203 5.09098 8.05116 5.2579 8.05116 5.43195C8.05116 5.60599 8.1203 5.77291 8.24337 5.89598C8.36645 6.01906 8.53337 6.0882 8.70741 6.0882H18.713C18.8871 6.0882 19.054 6.01906 19.1771 5.89598C19.3001 5.77291 19.3693 5.60599 19.3693 5.43195C19.3693 5.2579 19.3001 5.09098 19.1771 4.96791C19.054 4.84484 18.8871 4.7757 18.713 4.7757ZM18.713 9.46876H10.4574C10.2834 9.46876 10.1164 9.5379 9.99337 9.66097C9.8703 9.78404 9.80116 9.95096 9.80116 10.125C9.80116 10.2991 9.8703 10.466 9.99337 10.589C10.1164 10.7121 10.2834 10.7813 10.4574 10.7813H18.713C18.8871 10.7813 19.054 10.7121 19.1771 10.589C19.3001 10.466 19.3693 10.2991 19.3693 10.125C19.3693 9.95096 19.3001 9.78404 19.1771 9.66097C19.054 9.5379 18.8871 9.46876 18.713 9.46876ZM18.713 12.2438H8.70741C8.53337 12.2438 8.36645 12.313 8.24337 12.436C8.1203 12.5591 8.05116 12.726 8.05116 12.9001C8.05116 13.0741 8.1203 13.241 8.24337 13.3641C8.36645 13.4872 8.53337 13.5563 8.70741 13.5563H18.713C18.8871 13.5563 19.054 13.4872 19.1771 13.3641C19.3001 13.241 19.3693 13.0741 19.3693 12.9001C19.3693 12.726 19.3001 12.5591 19.1771 12.436C19.054 12.313 18.8871 12.2438 18.713 12.2438ZM5.08754 8.44501H1.29004C1.11599 8.44501 0.949071 8.51415 0.826 8.63722C0.702929 8.76029 0.633789 8.92721 0.633789 9.10126V12.8988C0.633789 13.0728 0.702929 13.2397 0.826 13.3628C0.949071 13.4859 1.11599 13.555 1.29004 13.555H5.08754C5.26159 13.555 5.42851 13.4859 5.55158 13.3628C5.67465 13.2397 5.74379 13.0728 5.74379 12.8988V9.10126C5.74379 8.92721 5.67465 8.76029 5.55158 8.63722C5.42851 8.51415 5.26159 8.44501 5.08754 8.44501ZM5.08754 0.976883H1.29004C1.11599 0.976883 0.949071 1.04602 0.826 1.16909C0.702929 1.29216 0.633789 1.45908 0.633789 1.63313V5.43063C0.633789 5.60468 0.702929 5.7716 0.826 5.89467C0.949071 6.01774 1.11599 6.08688 1.29004 6.08688H5.08754C5.26159 6.08688 5.42851 6.01774 5.55158 5.89467C5.67465 5.7716 5.74379 5.60468 5.74379 5.43063V1.63313C5.74379 1.45908 5.67465 1.29216 5.55158 1.16909C5.42851 1.04602 5.26159 0.976883 5.08754 0.976883ZM5.08754 15.9131H1.29004C1.11599 15.9131 0.949071 15.9823 0.826 16.1053C0.702929 16.2284 0.633789 16.3953 0.633789 16.5694V20.3669C0.633789 20.5409 0.702929 20.7079 0.826 20.8309C0.949071 20.954 1.11599 21.0231 1.29004 21.0231H5.08754C5.26159 21.0231 5.42851 20.954 5.55158 20.8309C5.67465 20.7079 5.74379 20.5409 5.74379 20.3669V16.5694C5.74379 16.3953 5.67465 16.2284 5.55158 16.1053C5.42851 15.9823 5.26159 15.9131 5.08754 15.9131ZM18.713 16.936H10.4574C10.2834 16.936 10.1164 17.0051 9.99337 17.1282C9.8703 17.2513 9.80116 17.4182 9.80116 17.5923C9.80116 17.7663 9.8703 17.9332 9.99337 18.0563C10.1164 18.1794 10.2834 18.2485 10.4574 18.2485H18.713C18.8871 18.2485 19.054 18.1794 19.1771 18.0563C19.3001 17.9332 19.3693 17.7663 19.3693 17.5923C19.3693 17.4182 19.3001 17.2513 19.1771 17.1282C19.054 17.0051 18.8871 16.936 18.713 16.936ZM18.713 19.7111H8.70741C8.53337 19.7111 8.36645 19.7802 8.24337 19.9033C8.1203 20.0264 8.05116 20.1933 8.05116 20.3673C8.05116 20.5414 8.1203 20.7083 8.24337 20.8314C8.36645 20.9544 8.53337 21.0236 8.70741 21.0236H18.713C18.8871 21.0236 19.054 20.9544 19.1771 20.8314C19.3001 20.7083 19.3693 20.5414 19.3693 20.3673C19.3693 20.1933 19.3001 20.0264 19.1771 19.9033C19.054 19.7802 18.8871 19.7111 18.713 19.7111Z" fill="#2F2E41"/>
</svg>
