<svg width="28" height="28" viewBox="0 0 34 34" fill="none" xmlns="http://www.w3.org/2000/svg">
<path d="M26.4338 29.6563V29.0957C26.4337 28.9962 26.3941 28.9009 26.3238 28.8306C26.2535 28.7603 26.1582 28.7208 26.0588 28.7207H18C17.9507 28.7207 17.902 28.711 17.8565 28.6922C17.811 28.6733 17.7696 28.6457 17.7348 28.6109C17.7 28.5761 17.6724 28.5347 17.6535 28.4892C17.6347 28.4437 17.625 28.3949 17.625 28.3457V24.5219C17.625 24.4727 17.6347 24.4239 17.6535 24.3784C17.6724 24.3329 17.7 24.2916 17.7348 24.2567C17.7696 24.2219 17.811 24.1943 17.8565 24.1754C17.902 24.1566 17.9507 24.1469 18 24.1469H26.0588C26.1582 24.1468 26.2535 24.1073 26.3238 24.037C26.3941 23.9667 26.4337 23.8714 26.4338 23.7719V23.2113L29.6562 26.4338L26.4338 29.6563Z" fill="#2F2E41"/>
<path d="M31.2661 26.6988L27.0736 30.8913C27.0211 30.9437 26.9543 30.9794 26.8815 30.9938C26.8088 31.0082 26.7333 31.0008 26.6648 30.9723C26.5963 30.9439 26.5378 30.8958 26.4966 30.8341C26.4555 30.7724 26.4335 30.6999 26.4336 30.6257V29.6563L29.6561 26.4338L26.4336 23.2113V22.2413C26.4336 22.1672 26.4556 22.0947 26.4968 22.033C26.538 21.9714 26.5965 21.9233 26.6651 21.895C26.7336 21.8666 26.8089 21.8592 26.8817 21.8737C26.9544 21.8881 27.0212 21.9239 27.0736 21.9763L31.2661 26.1688C31.3363 26.2391 31.3758 26.3344 31.3758 26.4338C31.3758 26.5332 31.3363 26.6285 31.2661 26.6988Z" fill="#2F2E41"/>
<path d="M31.2661 26.6988L27.0736 30.8913C27.0211 30.9437 26.9543 30.9794 26.8815 30.9938C26.8088 31.0082 26.7333 31.0008 26.6648 30.9723C26.5963 30.9439 26.5378 30.8958 26.4966 30.8341C26.4555 30.7724 26.4335 30.6999 26.4336 30.6257V29.6563L29.6561 26.4338L26.4336 23.2113V22.2413C26.4336 22.1672 26.4556 22.0947 26.4968 22.033C26.538 21.9714 26.5965 21.9233 26.6651 21.895C26.7336 21.8666 26.8089 21.8592 26.8817 21.8737C26.9544 21.8881 27.0212 21.9239 27.0736 21.9763L31.2661 26.1688C31.3363 26.2391 31.3758 26.3344 31.3758 26.4338C31.3758 26.5332 31.3363 26.6285 31.2661 26.6988Z" fill="#2F2E41"/>
<path d="M14.0624 7.85325H5.94116C5.84171 7.85325 5.74632 7.89276 5.676 7.96309C5.60567 8.03341 5.56616 8.1288 5.56616 8.22825V9.75844C5.56616 9.8326 5.54417 9.9051 5.50296 9.96676C5.46176 10.0284 5.4032 10.0765 5.33469 10.1049C5.26617 10.1333 5.19078 10.1407 5.11804 10.1262C5.0453 10.1118 4.97849 10.0761 4.92604 10.0236L0.73385 5.83144C0.663529 5.76112 0.624023 5.66574 0.624023 5.56628C0.624023 5.46683 0.663529 5.37145 0.73385 5.30113L4.92604 1.10894C4.97848 1.05651 5.04529 1.02081 5.11803 1.00635C5.19076 0.991884 5.26615 0.99931 5.33466 1.02769C5.40317 1.05606 5.46173 1.10411 5.50294 1.16577C5.54414 1.22742 5.56615 1.29991 5.56616 1.37407V2.90425C5.56616 3.00371 5.60567 3.09909 5.676 3.16942C5.74632 3.23974 5.84171 3.27925 5.94116 3.27925H14.0624C14.1619 3.27925 14.2573 3.31876 14.3276 3.38909C14.3979 3.45941 14.4374 3.5548 14.4374 3.65425V7.47825C14.4374 7.57771 14.3979 7.67309 14.3276 7.74342C14.2573 7.81374 14.1619 7.85325 14.0624 7.85325Z" fill="#2F2E41"/>
<path d="M16 25.6875C21.3503 25.6875 25.6875 21.3503 25.6875 16C25.6875 10.6497 21.3503 6.3125 16 6.3125C10.6497 6.3125 6.3125 10.6497 6.3125 16C6.3125 21.3503 10.6497 25.6875 16 25.6875Z" fill="#2F2E41"/>
<path d="M16 6.3125C15.5294 6.31255 15.0594 6.34662 14.5938 6.41444C16.8948 6.75216 18.9976 7.90637 20.5181 9.66626C22.0385 11.4262 22.8752 13.6743 22.8752 16C22.8752 18.3257 22.0385 20.5738 20.5181 22.3337C18.9976 24.0936 16.8948 25.2478 14.5938 25.5856C15.9112 25.7788 17.2544 25.6984 18.5395 25.3493C19.8245 25.0002 21.0237 24.3899 22.0624 23.5566C23.101 22.7233 23.9567 21.6848 24.576 20.506C25.1953 19.3272 25.5649 18.0334 25.6618 16.7053C25.7587 15.3772 25.5808 14.0435 25.1392 12.7872C24.6975 11.531 24.0017 10.3793 23.095 9.40407C22.1883 8.42881 21.0904 7.65094 19.8696 7.11902C18.6489 6.58709 17.3316 6.31254 16 6.3125Z" fill="#2F2E41"/>
<path d="M16 26.1562C10.3998 26.1562 5.84375 21.6002 5.84375 16C5.84375 10.3998 10.3998 5.84375 16 5.84375C21.6002 5.84375 26.1562 10.3998 26.1562 16C26.1562 21.6002 21.6002 26.1562 16 26.1562ZM16 6.78125C10.9167 6.78125 6.78125 10.9167 6.78125 16C6.78125 21.0833 10.9167 25.2188 16 25.2188C21.0833 25.2188 25.2188 21.0833 25.2188 16C25.2188 10.9167 21.0833 6.78125 16 6.78125Z" fill="#E5DCCA"/>
<path d="M21.1607 16.2146L16.0778 21.0824C16.0357 21.1227 15.9828 21.1497 15.9255 21.1601C15.8682 21.1705 15.8092 21.1639 15.7556 21.141C15.7021 21.1182 15.6565 21.0801 15.6244 21.0315C15.5923 20.9829 15.5752 20.926 15.5752 20.8678V11.1323C15.5752 11.0741 15.5923 11.0172 15.6244 10.9686C15.6565 10.92 15.7021 10.8819 15.7556 10.8591C15.8092 10.8362 15.8682 10.8296 15.9255 10.84C15.9828 10.8504 16.0357 10.8774 16.0778 10.9177L21.1607 15.7855C21.1896 15.8132 21.2127 15.8465 21.2284 15.8834C21.2442 15.9203 21.2523 15.96 21.2523 16C21.2523 16.0401 21.2442 16.0798 21.2284 16.1167C21.2127 16.1536 21.1896 16.1869 21.1607 16.2146Z" fill="#2F2E41"/>
<path d="M21.1607 15.7855L16.0778 10.9177C16.0357 10.8774 15.9828 10.8504 15.9255 10.84C15.8682 10.8296 15.8092 10.8362 15.7556 10.8591C15.7021 10.8819 15.6565 10.92 15.6244 10.9686C15.5923 11.0172 15.5752 11.0741 15.5752 11.1323V11.3342L20.2232 15.7854C20.2522 15.8132 20.2752 15.8465 20.291 15.8833C20.3067 15.9202 20.3148 15.9599 20.3148 16C20.3148 16.0401 20.3067 16.0798 20.291 16.1167C20.2752 16.1536 20.2522 16.1869 20.2232 16.2146L15.5752 20.6659V20.8678C15.5752 20.926 15.5923 20.9829 15.6244 21.0315C15.6565 21.0801 15.7021 21.1182 15.7556 21.141C15.8092 21.1639 15.8682 21.1705 15.9255 21.1601C15.9828 21.1497 16.0357 21.1227 16.0778 21.0824L21.1607 16.2146C21.1896 16.1869 21.2127 16.1536 21.2284 16.1167C21.2442 16.0798 21.2523 16.0401 21.2523 16C21.2523 15.96 21.2442 15.9203 21.2284 15.8834C21.2127 15.8465 21.1896 15.8132 21.1607 15.7855Z" fill="#2F2E41"/>
<path d="M18.2076 16.2145L13.1247 21.0824C13.0826 21.1226 13.0297 21.1496 12.9724 21.1601C12.9151 21.1705 12.8561 21.1639 12.8025 21.141C12.749 21.1182 12.7033 21.0801 12.6712 21.0315C12.6392 20.9829 12.6221 20.926 12.6221 20.8677V11.1322C12.6221 11.074 12.6392 11.0171 12.6712 10.9685C12.7033 10.9199 12.749 10.8818 12.8025 10.859C12.8561 10.8361 12.9151 10.8295 12.9724 10.8399C13.0297 10.8503 13.0826 10.8773 13.1247 10.9176L18.2076 15.7854C18.2366 15.8132 18.2596 15.8465 18.2754 15.8833C18.2911 15.9202 18.2992 15.9599 18.2992 16C18.2992 16.0401 18.2911 16.0798 18.2754 16.1166C18.2596 16.1535 18.2366 16.1868 18.2076 16.2145Z" fill="#E5DCCA"/>
<path d="M18.2076 15.7854L13.1247 10.9176C13.0826 10.8773 13.0297 10.8503 12.9724 10.8399C12.9151 10.8295 12.8561 10.8361 12.8025 10.859C12.749 10.8818 12.7033 10.9199 12.6712 10.9685C12.6392 11.0171 12.6221 11.074 12.6221 11.1322V11.3341L17.2701 15.7854C17.299 15.8131 17.3221 15.8464 17.3378 15.8833C17.3536 15.9202 17.3617 15.9598 17.3617 16C17.3617 16.0401 17.3536 16.0797 17.3378 16.1166C17.3221 16.1535 17.299 16.1868 17.2701 16.2145L12.6221 20.6658V20.8677C12.6221 20.926 12.6392 20.9829 12.6712 21.0315C12.7033 21.0801 12.749 21.1182 12.8025 21.141C12.8561 21.1639 12.9151 21.1705 12.9724 21.1601C13.0297 21.1496 13.0826 21.1226 13.1247 21.0824L18.2076 16.2145C18.2365 16.1868 18.2596 16.1535 18.2753 16.1166C18.2911 16.0798 18.2992 16.0401 18.2992 16C18.2992 15.9599 18.2911 15.9202 18.2753 15.8833C18.2596 15.8465 18.2365 15.8132 18.2076 15.7854Z" fill="#FE9526"/>
</svg>
