<svg width="477" height="461" viewBox="0 0 477 461" fill="none" xmlns="http://www.w3.org/2000/svg">
<g clip-path="url(#clip0_124_105)">
<path d="M220.214 451.571L232.073 451.57L237.715 405.827L220.212 405.828L220.214 451.571Z" fill="#FFB6B6"/>
<path d="M260.845 451.302C261.214 451.924 261.409 453.931 261.409 454.654C261.409 456.877 259.607 458.679 257.384 458.679H220.658C219.141 458.679 217.912 457.45 217.912 455.934V454.405C217.912 454.405 216.095 449.809 219.836 444.145C219.836 444.145 224.484 448.58 231.431 441.633L233.48 437.922L248.308 448.767L256.527 449.779C258.326 450 259.92 449.744 260.845 451.302Z" fill="#2F2E41"/>
<path d="M175.214 451.571L187.073 451.57L192.715 405.827L175.212 405.828L175.214 451.571Z" fill="#FFB6B6"/>
<path d="M215.845 451.302C216.214 451.924 216.409 453.931 216.409 454.654C216.409 456.877 214.607 458.679 212.384 458.679H175.658C174.141 458.679 172.912 457.45 172.912 455.934V454.405C172.912 454.405 171.095 449.809 174.836 444.145C174.836 444.145 179.484 448.58 186.431 441.633L188.48 437.922L203.308 448.767L211.527 449.779C213.326 450 214.92 449.744 215.845 451.302Z" fill="#2F2E41"/>
<path d="M166.48 205.855L151.48 239.855L170.48 425.855L193.98 427.355L203.48 262.855L212.48 427.855L240.48 424.855L247.122 215.395L166.48 205.855Z" fill="#2F2E41"/>
<path d="M225.579 70.3555L195.48 64.8555L189.401 70.9342L158.48 83.8555L163.48 180.855C163.48 180.855 153.48 187.517 158.48 196.686C163.48 205.855 162.48 216.855 162.48 216.855H247.122L243.48 161.855L253.48 91.8555L230.114 80.793L225.579 70.3555Z" fill="#2F2E41"/>
<path d="M212.419 62.0176C227.018 62.0176 238.852 50.183 238.852 35.5844C238.852 20.9857 227.018 9.15112 212.419 9.15112C197.82 9.15112 185.986 20.9857 185.986 35.5844C185.986 50.183 197.82 62.0176 212.419 62.0176Z" fill="#FFB6B6"/>
<path d="M193.461 59.0496C190.294 59.3326 185.125 51.2318 185.355 43.3865C185.503 38.3394 181.122 37.3471 180.796 30.8382C180.606 27.0457 186.432 25.8631 186.832 22.8212C187.557 17.3096 191.113 13.6008 191.557 13.1499C195.389 9.258 198.094 10.5232 202.6 6.01256C205.314 3.29693 204.618 2.55294 206.446 1.34841C211.719 -2.12793 221.195 1.63976 226.861 6.71499C228.822 8.47122 236.132 6.55177 239.324 11.5112C243.086 17.3543 242.213 29.2706 240.6 30.8432C239.62 31.7986 237.381 29.4644 231.316 27.9663C225.7 26.5792 230.997 33.4385 224.505 32.2874C216.827 30.9263 215.324 28.5905 212.449 29.9914C209.409 31.4724 207.034 36.058 207.724 39.6627C208.066 41.4515 209.058 42.449 208.499 43.3586C207.478 45.0193 206.306 43.3906 204.996 45.0572C203.473 46.9957 207.258 51.9687 206.546 52.4489C206.402 52.5457 205.967 52.5331 201.881 48.6037C200.25 47.0347 199.772 46.0712 199.453 46.2191C198.936 46.4585 195.549 49.6136 196.842 52.1051C198.855 55.9824 196.279 56.1032 196.842 58.7134C197.423 61.4063 195.473 58.8698 193.461 59.0496Z" fill="#2F2E41"/>
<path d="M221.56 187.479C213.766 191.547 209.548 198.865 212.137 203.825C214.727 208.784 223.143 209.506 230.938 205.435C234.075 203.852 236.786 201.541 238.846 198.695L271.65 181.043L263.038 165.825L231.614 184.843C228.1 184.906 224.652 185.81 221.56 187.479Z" fill="#FFB6B6"/>
<path d="M247.48 92.8555C247.48 92.8555 256.48 86.8555 262.48 102.855C267.214 115.478 275.993 152.685 279.488 167.83C280.416 171.851 279.073 176.051 275.989 178.792L271.98 182.355L252.48 196.855L239.185 177.509L255.333 167.773L236.917 127.824L247.48 92.8555Z" fill="#2F2E41"/>
<path d="M247.839 175.59V155.083C247.839 153.9 248.801 152.938 249.984 152.938H259.907C261.09 152.938 262.051 153.9 262.051 155.083V175.59C262.051 176.772 261.09 177.734 259.907 177.734H249.984C248.801 177.734 247.839 176.772 247.839 175.59Z" fill="#2F2E41"/>
<path d="M389.65 142.585C405.883 142.585 419.043 129.426 419.043 113.193C419.043 96.9596 405.883 83.8 389.65 83.8C373.417 83.8 360.258 96.9596 360.258 113.193C360.258 129.426 373.417 142.585 389.65 142.585Z" fill="#FF6884"/>
<path d="M360.623 299.584L327.41 300.042L314.094 151.564C313.77 147.961 314.934 144.317 317.288 141.568L349.947 103.412C354.519 98.0715 362.293 97.1079 368.03 101.173L408.935 130.155C412.272 132.519 414.34 136.216 414.609 140.297L444.468 240.612L440.463 274.066L440.502 274.112L445.235 298.417L360.623 299.584Z" fill="#E6E6E6"/>
<path d="M353.666 137.936L353.132 131.044C352.99 129.225 354.356 127.631 356.175 127.489L365.857 126.738C367.676 126.597 369.271 127.962 369.412 129.781L369.947 136.672C370.088 138.491 368.723 140.086 366.904 140.227L357.221 140.979C355.402 141.12 353.808 139.755 353.666 137.936Z" fill="#2F2E41"/>
<path d="M337.351 193.016L335.372 167.519C335.231 165.7 336.596 164.105 338.415 163.964L352.749 162.852C354.568 162.71 356.163 164.076 356.304 165.895L358.283 191.392C358.424 193.211 357.059 194.806 355.24 194.947L340.906 196.059C339.087 196.201 337.492 194.835 337.351 193.016Z" fill="#3F3D56"/>
<path d="M374.384 250.186C372.647 250.259 371.14 248.961 370.955 247.232L368.317 222.644C368.205 221.595 368.584 220.582 369.358 219.864C370.133 219.147 371.172 218.847 372.21 219.038L372.95 219.175C374.422 219.448 375.53 220.68 375.646 222.172L377.544 246.624C377.614 247.527 377.321 248.398 376.72 249.075C376.146 249.723 375.363 250.112 374.504 250.178C374.464 250.181 374.424 250.184 374.384 250.186Z" fill="#3F3D56"/>
<path d="M344.045 249.119L342.061 223.548C341.921 221.743 343.222 220.184 345.023 220L358.027 218.671C359.831 218.506 361.46 219.805 361.653 221.612L364.413 247.442C364.509 248.339 364.244 249.215 363.667 249.909C363.091 250.603 362.278 251.023 361.379 251.093L347.6 252.162C345.781 252.303 344.186 250.938 344.045 249.119Z" fill="#3F3D56"/>
<path d="M422.406 260.617L434.026 277.977L436.782 298.302L444.953 298.187L440.285 274.216L421.735 252.258C420.491 254.972 420.745 258.136 422.406 260.617Z" fill="#CCCCCC"/>
<path d="M436.002 292.484L402.896 295.509L402.938 295.974L436.045 292.949L436.002 292.484Z" fill="#3F3D56"/>
<path d="M433.673 288.535L402.269 291.219L402.309 291.684L433.713 289L433.673 288.535Z" fill="#3F3D56"/>
<path d="M431.717 284.466L401.705 287.386L401.75 287.851L431.762 284.931L431.717 284.466Z" fill="#3F3D56"/>
<path d="M430.46 280.367L401.669 283.566L401.72 284.03L430.511 280.831L430.46 280.367Z" fill="#3F3D56"/>
<path d="M428.776 276.761L401.118 279.888L401.171 280.352L428.828 277.224L428.776 276.761Z" fill="#3F3D56"/>
<path d="M426.669 273.635L399.657 275.731L399.693 276.197L426.705 274.1L426.669 273.635Z" fill="#3F3D56"/>
<path d="M425.017 270.48L398.79 272.824L398.832 273.289L425.059 270.944L425.017 270.48Z" fill="#3F3D56"/>
<path d="M423.365 267.335L397.993 270.154L398.045 270.618L423.416 267.799L423.365 267.335Z" fill="#3F3D56"/>
<path d="M422.187 264.168L397.103 266.559L397.147 267.023L422.231 264.632L422.187 264.168Z" fill="#3F3D56"/>
<path d="M420.073 261.091L396.08 263.709L396.131 264.173L420.123 261.555L420.073 261.091Z" fill="#3F3D56"/>
<path d="M418.927 258.325L395.106 260.408L395.147 260.873L418.968 258.79L418.927 258.325Z" fill="#3F3D56"/>
<path d="M392.603 250.732L390.155 219.188C390.014 217.369 391.379 215.774 393.198 215.633L408.462 214.448C410.281 214.307 411.876 215.672 412.017 217.491L414.465 249.036C414.606 250.855 413.242 252.449 411.422 252.59L396.158 253.775C394.339 253.916 392.744 252.551 392.603 250.732Z" fill="#2F2E41"/>
<path d="M360.623 299.584L333.469 299.96L333.25 299.963L331.627 279.051C331.422 276.406 333.407 274.088 336.051 273.882L362.741 271.811C365.385 271.606 367.704 273.591 367.909 276.235L369.667 298.883L369.434 298.901L360.623 299.584Z" fill="#CCCCCC"/>
<path d="M390.024 193.374L388.153 169.272C388.012 167.453 389.377 165.858 391.196 165.717L396.227 165.327C398.046 165.186 399.641 166.551 399.782 168.37L401.652 192.472C401.794 194.291 400.429 195.886 398.61 196.027L393.579 196.417C391.76 196.558 390.165 195.193 390.024 193.374Z" fill="#3F3D56"/>
<path d="M403.338 298.609L400.354 278.251L394.652 259.039L393.074 253.78C390.558 252.341 387.48 254.398 387.849 257.273L388.14 259.545L393.842 278.756L396.826 299.115" fill="#CCCCCC"/>
<path d="M69.0839 303.336L35.87 303.795L22.554 155.317C22.2309 151.713 23.3949 148.069 25.748 145.32L58.4077 107.165C62.9796 101.824 70.753 100.86 76.4902 104.925L117.396 133.908C120.733 136.272 122.801 139.969 123.069 144.05L152.928 244.364L148.924 277.818L148.963 277.864L153.696 302.169L69.0839 303.336Z" fill="#E6E6E6"/>
<path d="M62.1269 141.688L61.5921 134.797C61.4509 132.978 62.816 131.383 64.635 131.242L74.3175 130.49C76.1366 130.349 77.7312 131.714 77.8723 133.533L78.4071 140.425C78.5483 142.244 77.1835 143.839 75.3644 143.98L65.6819 144.731C63.8628 144.872 62.2681 143.507 62.1269 141.688Z" fill="#2F2E41"/>
<path d="M45.8116 196.769L43.8328 171.271C43.6916 169.452 45.0567 167.858 46.8757 167.716L61.2098 166.604C63.0288 166.463 64.6234 167.828 64.7646 169.647L66.7433 195.144C66.8845 196.963 65.5197 198.558 63.7006 198.699L49.3666 199.812C47.5475 199.953 45.9527 198.588 45.8116 196.769Z" fill="#3F3D56"/>
<path d="M82.8443 253.938C81.1071 254.011 79.6009 252.714 79.4151 250.985L76.7778 226.397C76.6652 225.347 77.0447 224.334 77.8189 223.617C78.5931 222.899 79.6326 222.599 80.6706 222.79L81.4104 222.927C82.882 223.2 83.9908 224.433 84.1066 225.925L86.0042 250.376C86.0743 251.279 85.7817 252.15 85.1806 252.828C84.6062 253.476 83.8231 253.864 82.9646 253.931C82.9246 253.934 82.8846 253.936 82.8443 253.938Z" fill="#3F3D56"/>
<path d="M52.5056 252.872L50.5211 227.3C50.381 225.495 51.6824 223.937 53.4837 223.752L66.4871 222.424C68.291 222.259 69.9205 223.558 70.1139 225.364L72.8735 251.195C72.9691 252.092 72.7044 252.968 72.1276 253.661C71.5513 254.355 70.7385 254.775 69.8393 254.845L56.0606 255.915C54.2415 256.056 52.6468 254.691 52.5056 252.872Z" fill="#3F3D56"/>
<path d="M130.866 264.369L142.486 281.73L145.243 302.054L153.413 301.94L148.745 277.968L130.195 256.01C128.952 258.724 129.206 261.889 130.866 264.369Z" fill="#CCCCCC"/>
<path d="M144.463 296.237L111.356 299.262L111.399 299.726L144.505 296.701L144.463 296.237Z" fill="#3F3D56"/>
<path d="M142.134 292.287L110.729 294.972L110.769 295.436L142.173 292.752L142.134 292.287Z" fill="#3F3D56"/>
<path d="M140.177 288.219L110.165 291.139L110.21 291.603L140.222 288.683L140.177 288.219Z" fill="#3F3D56"/>
<path d="M138.92 284.12L110.129 287.318L110.181 287.782L138.972 284.584L138.92 284.12Z" fill="#3F3D56"/>
<path d="M137.236 280.513L109.579 283.64L109.631 284.104L137.289 280.977L137.236 280.513Z" fill="#3F3D56"/>
<path d="M135.13 277.388L108.118 279.484L108.154 279.949L135.166 277.853L135.13 277.388Z" fill="#3F3D56"/>
<path d="M133.478 274.232L107.25 276.577L107.292 277.042L133.519 274.697L133.478 274.232Z" fill="#3F3D56"/>
<path d="M131.825 271.087L106.454 273.906L106.505 274.37L131.877 271.551L131.825 271.087Z" fill="#3F3D56"/>
<path d="M130.647 267.92L105.563 270.311L105.607 270.776L130.692 268.385L130.647 267.92Z" fill="#3F3D56"/>
<path d="M128.533 264.843L104.541 267.461L104.591 267.925L128.584 265.307L128.533 264.843Z" fill="#3F3D56"/>
<path d="M127.388 262.078L103.567 264.161L103.608 264.626L127.428 262.543L127.388 262.078Z" fill="#3F3D56"/>
<path d="M101.064 254.485L98.6155 222.94C98.4743 221.121 99.8394 219.526 101.658 219.385L116.923 218.201C118.742 218.059 120.336 219.425 120.478 221.244L122.926 252.788C123.067 254.607 121.702 256.202 119.883 256.343L104.619 257.528C102.8 257.669 101.205 256.304 101.064 254.485Z" fill="#2F2E41"/>
<path d="M69.084 303.336L41.9296 303.712L41.7107 303.715L40.0878 282.803C39.8826 280.159 41.8671 277.84 44.5118 277.635L71.2011 275.563C73.8458 275.358 76.1643 277.343 76.3696 279.988L78.1272 302.635L77.8946 302.653L69.084 303.336Z" fill="#CCCCCC"/>
<path d="M98.4841 197.127L96.6135 173.025C96.4724 171.206 97.8375 169.611 99.6565 169.47L104.688 169.079C106.507 168.938 108.101 170.303 108.242 172.122L110.113 196.224C110.254 198.043 108.889 199.638 107.07 199.779L102.039 200.17C100.22 200.311 98.6252 198.946 98.4841 197.127Z" fill="#3F3D56"/>
<path d="M111.798 302.362L108.815 282.003L103.112 262.792L101.534 257.533C99.0183 256.093 95.9407 258.151 96.309 261.026L96.6 263.297L102.302 282.509L105.286 302.867" fill="#CCCCCC"/>
<path d="M244.223 301.13L211.01 301.588L197.694 153.111C197.371 149.507 198.535 145.863 200.888 143.114L233.548 104.959C238.119 99.6172 245.893 98.6545 251.63 102.719L292.535 131.702C295.872 134.066 313.825 147.483 314.094 151.565L305.562 253.713L324.063 275.612L324.102 275.658L328.835 299.963L244.223 301.13Z" fill="#E6E6E6"/>
<path d="M237.267 139.482L236.732 132.591C236.591 130.772 237.956 129.177 239.775 129.036L249.457 128.284C251.276 128.143 252.871 129.508 253.012 131.327L253.547 138.219C253.688 140.038 252.323 141.632 250.504 141.774L240.822 142.525C239.003 142.666 237.408 141.301 237.267 139.482Z" fill="#2F2E41"/>
<path d="M220.951 194.563L218.972 169.065C218.831 167.246 220.196 165.652 222.016 165.51L236.349 164.398C238.168 164.257 239.763 165.622 239.904 167.441L241.883 192.938C242.024 194.757 240.659 196.352 238.84 196.493L224.506 197.606C222.687 197.747 221.092 196.382 220.951 194.563Z" fill="#3F3D56"/>
<path d="M253.276 221.753C252.611 222.369 252.285 223.24 252.382 224.141L255.019 248.729C255.178 250.214 256.472 251.328 257.964 251.266C258.749 251.236 259.455 250.894 259.971 250.312C260.487 249.73 260.739 248.982 260.678 248.206L258.781 223.755C258.681 222.473 257.729 221.415 256.465 221.18L255.725 221.043C255.474 220.997 255.224 220.984 254.978 221.003C254.349 221.052 253.754 221.31 253.276 221.753Z" fill="#3F3D56"/>
<path d="M213.96 254.22C213.262 253.643 212.838 252.827 212.768 251.924L210.871 227.473C210.755 225.981 211.66 224.592 213.072 224.096L213.782 223.846C214.777 223.497 215.851 223.633 216.727 224.222C217.603 224.812 218.134 225.755 218.185 226.809L219.372 251.509C219.456 253.246 218.168 254.76 216.44 254.956C216.4 254.961 216.36 254.964 216.32 254.967C215.462 255.034 214.628 254.771 213.96 254.22Z" fill="#3F3D56"/>
<path d="M306.006 262.163L317.626 279.524L320.382 299.848L328.553 299.734L323.885 275.762L305.335 253.804C304.091 256.518 304.345 259.683 306.006 262.163Z" fill="#CCCCCC"/>
<path d="M319.602 294.031L286.496 297.056L286.539 297.52L319.645 294.495L319.602 294.031Z" fill="#3F3D56"/>
<path d="M317.273 290.081L285.869 292.766L285.909 293.23L317.313 290.546L317.273 290.081Z" fill="#3F3D56"/>
<path d="M315.317 286.013L285.305 288.933L285.35 289.397L315.362 286.477L315.317 286.013Z" fill="#3F3D56"/>
<path d="M314.06 281.913L285.269 285.112L285.321 285.576L314.111 282.377L314.06 281.913Z" fill="#3F3D56"/>
<path d="M312.376 278.307L284.718 281.434L284.771 281.898L312.428 278.771L312.376 278.307Z" fill="#3F3D56"/>
<path d="M310.269 275.181L283.257 277.278L283.293 277.743L310.305 275.647L310.269 275.181Z" fill="#3F3D56"/>
<path d="M308.618 272.026L282.39 274.371L282.432 274.836L308.659 272.491L308.618 272.026Z" fill="#3F3D56"/>
<path d="M306.965 268.881L281.593 271.7L281.645 272.164L307.016 269.345L306.965 268.881Z" fill="#3F3D56"/>
<path d="M305.787 265.714L280.703 268.105L280.747 268.57L305.831 266.179L305.787 265.714Z" fill="#3F3D56"/>
<path d="M303.673 262.637L279.68 265.255L279.731 265.719L303.724 263.101L303.673 262.637Z" fill="#3F3D56"/>
<path d="M302.527 259.872L278.707 261.955L278.747 262.419L302.568 260.337L302.527 259.872Z" fill="#3F3D56"/>
<path d="M276.203 252.279L273.755 220.734C273.614 218.915 274.979 217.32 276.798 217.179L292.062 215.994C293.881 215.853 295.476 217.218 295.617 219.038L298.065 250.582C298.206 252.401 296.842 253.996 295.023 254.137L279.758 255.321C277.939 255.463 276.344 254.097 276.203 252.279Z" fill="#2F2E41"/>
<path d="M244.223 301.13L217.069 301.506L216.85 301.509L215.227 280.597C215.022 277.953 217.007 275.634 219.652 275.429L246.341 273.357C248.986 273.152 251.304 275.137 251.509 277.781L253.267 300.429L253.034 300.447L244.223 301.13Z" fill="#CCCCCC"/>
<path d="M273.624 194.92L271.753 170.819C271.612 168.999 272.977 167.405 274.796 167.264L279.827 166.873C281.646 166.732 283.241 168.097 283.382 169.916L285.252 194.018C285.394 195.837 284.029 197.432 282.21 197.573L277.179 197.963C275.36 198.105 273.765 196.74 273.624 194.92Z" fill="#3F3D56"/>
<path d="M286.938 300.156L283.954 279.797L278.252 260.586L276.674 255.327C274.158 253.887 271.08 255.945 271.449 258.82L271.74 261.091L277.442 280.303L280.426 300.661" fill="#CCCCCC"/>
<path d="M476.543 297.794L51.1909 303.308L51.203 304.241L476.555 298.727L476.543 297.794Z" fill="#CCCCCC"/>
<path d="M193.282 160.622C203.804 160.622 212.333 152.092 212.333 141.571C212.333 131.049 203.804 122.52 193.282 122.52C182.761 122.52 174.231 131.049 174.231 141.571C174.231 152.092 182.761 160.622 193.282 160.622Z" fill="#2F2E41"/>
<path d="M205.646 121.501C204.534 120.85 202.837 121.188 202.225 122.398C199.813 127.172 198.053 132.169 196.908 137.342C195.078 135.087 193.249 132.832 191.419 130.577C190.568 129.528 188.768 129.692 187.884 130.577C186.846 131.614 187.03 133.061 187.884 134.113C190.796 137.702 193.708 141.292 196.62 144.882C197.235 145.64 198.526 145.761 199.351 145.399C200.346 144.961 200.752 144.153 200.888 143.114C201.713 136.801 203.674 130.598 206.543 124.921C207.151 123.717 206.861 122.211 205.646 121.501Z" fill="white"/>
<path d="M203.763 183.364C212.314 185.405 220.299 182.648 221.597 177.206C222.895 171.764 217.016 165.699 208.461 163.658C205.056 162.796 201.493 162.762 198.071 163.559L161.731 155.368L158.25 172.503L194.445 178.759C197.139 181.016 200.334 182.595 203.763 183.364Z" fill="#FFB6B6"/>
<path d="M164.48 88.8555L158.48 83.8555C158.48 83.8555 146.48 89.8555 144.48 94.8555C142.48 99.8555 130.48 147.855 130.48 147.855C130.48 147.855 128.126 174.162 134.303 177.509C140.48 180.855 179.48 178.855 179.48 178.855L182.48 158.855L166.48 152.855L164.48 88.8555Z" fill="#2F2E41"/>
<path d="M403.784 368.949C402.939 367.526 399.287 369.05 398.615 367.758C397.946 366.47 401.34 364.509 403.279 360.028C403.628 359.22 405.832 354.128 404.201 352.556C401.109 349.578 386.961 361.869 382.01 357.847C380.923 356.964 380.164 355.202 376.876 352.341C375.567 351.203 374.776 350.689 374.011 350.88C372.924 351.151 372.838 352.605 371.673 355.464C369.926 359.751 368.893 359.493 367.875 362.913C367.12 365.452 367.292 366.929 366.403 367.216C365.145 367.623 363.987 364.93 362.392 365.171C360.765 365.417 359.781 368.553 359.47 370.901C358.887 375.307 360.505 378.215 361.402 381.272C362.377 384.594 362.955 389.647 360.704 396.799L338.427 459.565C343.345 446.686 357.586 411.38 363.569 398.26C365.297 394.473 367.204 390.631 371.12 389.115C374.891 387.655 380.069 388.527 386.671 386.936C387.442 386.751 389.581 386.206 389.85 384.948C390.073 383.907 388.815 383.327 389.008 382.352C389.267 381.045 391.742 381.029 394.783 379.521C396.928 378.458 398.264 377.193 399.413 376.106C399.759 375.778 404.908 370.844 403.784 368.949Z" fill="#F6F6F6"/>
<path d="M316.139 401.992C315.197 401.996 314.891 404.228 314.063 404.185C313.238 404.142 313.254 401.91 311.615 399.666C311.319 399.261 309.455 396.71 308.214 397.058C305.86 397.716 307.81 408.206 304.407 409.475C303.661 409.754 302.577 409.618 300.224 410.407C299.288 410.72 298.807 410.96 298.68 411.391C298.5 412.003 299.188 412.465 300.255 413.861C301.856 415.956 301.43 416.388 302.816 417.875C303.844 418.978 304.618 419.319 304.503 419.839C304.339 420.574 302.683 420.365 302.342 421.217C301.993 422.087 303.248 423.474 304.311 424.304C306.305 425.862 308.199 425.907 309.958 426.349C311.87 426.829 314.517 428.003 317.378 431.171L341.756 460.215C336.854 454.085 323.635 436.909 318.922 430.187C317.561 428.246 316.226 426.201 316.612 423.842C316.983 421.57 318.905 419.28 320.029 415.581C320.161 415.149 320.511 413.942 319.971 413.447C319.525 413.037 318.876 413.487 318.454 413.111C317.887 412.607 318.593 411.387 318.731 409.46C318.828 408.1 318.593 407.08 318.39 406.202C318.329 405.938 317.393 401.987 316.139 401.992Z" fill="#F6F6F6"/>
<path d="M334.938 406.212L334.371 401.144L334.63 400.759C335.83 398.983 336.442 397.248 336.449 395.601C336.451 395.339 336.438 395.077 336.426 394.81C336.377 393.753 336.316 392.439 337.001 390.907C337.386 390.053 338.465 388.076 340.087 388.32C340.524 388.382 340.854 388.582 341.105 388.817C341.142 388.758 341.18 388.7 341.22 388.636C341.726 387.865 342.126 387.535 342.511 387.217C342.807 386.972 343.113 386.72 343.593 386.123C343.803 385.861 343.967 385.631 344.106 385.438C344.525 384.853 345.073 384.155 346.04 384.167C347.073 384.216 347.614 385.07 347.972 385.636C348.612 386.644 348.902 387.371 349.094 387.853C349.164 388.029 349.244 388.227 349.284 388.288C349.617 388.778 352.322 388.32 353.341 388.154C355.631 387.772 357.612 387.442 358.428 388.886C359.013 389.918 358.578 391.284 357.098 393.053C356.637 393.604 356.146 394.022 355.71 394.35C356.071 394.566 356.394 394.896 356.525 395.415C356.834 396.643 355.778 397.874 353.388 399.078C352.794 399.379 351.995 399.781 350.876 399.974C350.348 400.064 349.874 400.087 349.467 400.099C349.459 400.334 349.404 400.588 349.261 400.85C348.841 401.621 347.967 401.988 346.651 401.9C345.202 401.824 344.009 401.547 342.957 401.305C342.038 401.095 341.246 400.916 340.624 400.958C339.472 401.051 338.583 401.973 337.541 403.17L334.938 406.212Z" fill="#F6F6F6"/>
<path d="M337.572 376.036L332.814 377.871L332.377 377.717C330.354 377.007 328.52 376.855 326.925 377.266C326.671 377.331 326.421 377.409 326.166 377.489C325.156 377.804 323.9 378.197 322.245 377.923C321.321 377.768 319.135 377.225 318.96 375.594C318.908 375.156 319.019 374.785 319.182 374.483C319.116 374.462 319.05 374.441 318.978 374.418C318.104 374.124 317.683 373.821 317.278 373.529C316.966 373.305 316.644 373.073 315.945 372.76C315.638 372.623 315.374 372.523 315.152 372.438C314.48 372.18 313.666 371.827 313.433 370.889C313.218 369.878 313.907 369.138 314.363 368.648C315.176 367.773 315.806 367.308 316.223 367C316.376 366.888 316.548 366.761 316.597 366.706C316.986 366.26 315.857 363.759 315.437 362.815C314.487 360.698 313.665 358.865 314.855 357.71C315.705 356.882 317.136 356.956 319.223 357.939C319.873 358.246 320.402 358.614 320.83 358.952C320.947 358.548 321.184 358.152 321.653 357.894C322.763 357.284 324.222 357.993 325.992 359.999C326.434 360.497 327.025 361.168 327.496 362.202C327.717 362.689 327.859 363.143 327.974 363.533C328.203 363.481 328.464 363.47 328.753 363.542C329.605 363.753 330.182 364.505 330.431 365.801C330.725 367.221 330.76 368.445 330.793 369.525C330.822 370.467 330.85 371.278 331.048 371.869C331.43 372.96 332.548 373.585 333.97 374.29L337.572 376.036Z" fill="#F6F6F6"/>
<path d="M334.938 361.105L334.371 356.037L334.63 355.653C335.83 353.876 336.442 352.141 336.449 350.494C336.451 350.232 336.438 349.97 336.426 349.704C336.377 348.646 336.316 347.332 337.001 345.8C337.386 344.946 338.465 342.969 340.087 343.214C340.524 343.275 340.854 343.475 341.105 343.71C341.142 343.652 341.18 343.593 341.22 343.529C341.726 342.758 342.126 342.428 342.511 342.11C342.807 341.865 343.113 341.613 343.593 341.016C343.803 340.754 343.967 340.524 344.106 340.331C344.525 339.746 345.073 339.048 346.04 339.061C347.073 339.11 347.614 339.964 347.972 340.529C348.612 341.537 348.902 342.264 349.094 342.746C349.164 342.922 349.244 343.121 349.284 343.182C349.617 343.671 352.322 343.214 353.341 343.047C355.631 342.665 357.612 342.335 358.428 343.779C359.013 344.812 358.578 346.177 357.098 347.947C356.637 348.497 356.146 348.916 355.71 349.244C356.071 349.459 356.394 349.789 356.525 350.308C356.834 351.537 355.778 352.768 353.388 353.972C352.794 354.273 351.995 354.674 350.876 354.867C350.348 354.958 349.874 354.98 349.467 354.992C349.459 355.227 349.404 355.482 349.261 355.743C348.841 356.514 347.967 356.881 346.651 356.793C345.202 356.717 344.009 356.441 342.957 356.199C342.038 355.988 341.246 355.809 340.624 355.851C339.472 355.944 338.583 356.867 337.541 358.063L334.938 361.105Z" fill="#F6F6F6"/>
<path d="M340.124 459.483L339.062 458.817L337.824 458.959C337.804 458.844 337.737 458.58 337.635 458.166C337.081 455.9 335.391 449.004 333.982 438.143C332.998 430.562 332.441 422.767 332.326 414.973C332.211 407.166 332.581 401.256 332.877 396.506C333.101 392.924 333.372 389.512 333.639 386.189C334.349 377.31 335.018 368.924 334.52 359.639C334.41 357.566 334.179 353.252 331.658 348.661C330.196 345.998 328.182 343.634 325.671 341.637L327.232 339.675C330.004 341.882 332.232 344.501 333.856 347.457C336.65 352.547 336.902 357.248 337.023 359.507C337.53 368.956 336.853 377.423 336.136 386.387C335.872 389.698 335.6 393.095 335.378 396.663C335.084 401.369 334.718 407.228 334.832 414.934C334.945 422.635 335.495 430.334 336.466 437.82C337.858 448.544 339.523 455.337 340.07 457.569C340.362 458.761 340.423 459.01 340.124 459.483Z" fill="#F6F6F6"/>
<path d="M321.075 345.619C320.972 345.619 320.868 345.617 320.763 345.609C318.629 345.494 316.653 344.217 314.889 341.814C314.061 340.683 313.638 339.393 312.794 336.821C312.663 336.425 312.027 334.413 311.64 331.646C311.387 329.837 311.418 329.081 311.777 328.413C312.175 327.669 312.818 327.15 313.543 326.8C313.511 326.56 313.536 326.313 313.641 326.061C314.068 325.016 315.203 325.153 315.817 325.219C316.128 325.258 316.516 325.31 316.934 325.288C317.593 325.256 317.946 325.06 318.482 324.766C318.995 324.485 319.632 324.135 320.578 323.942C322.443 323.553 324.006 324.081 324.521 324.255C327.231 325.158 328.567 327.265 330.114 329.705C330.422 330.194 331.481 331.976 332.179 334.418C332.683 336.18 332.612 336.963 332.461 337.546C332.152 338.742 331.424 339.428 329.575 340.94C327.645 342.523 326.676 343.316 325.843 343.798C323.907 344.917 322.69 345.619 321.075 345.619Z" fill="#F6F6F6"/>
<path d="M428.04 458.343C428.04 458.807 427.664 459.183 427.2 459.183H0.84003C0.3761 459.183 0 458.807 0 458.343C0 457.88 0.37609 457.503 0.84003 457.503H427.2C427.664 457.503 428.04 457.88 428.04 458.343Z" fill="#E6E6E6"/>
</g>
<defs>
<clipPath id="clip0_124_105">
<rect width="476.555" height="460.215" fill="white"/>
</clipPath>
</defs>
</svg>
