<svg width="45" height="45" viewBox="0 0 45 45" fill="none" xmlns="http://www.w3.org/2000/svg">
<path d="M22.5 22.5C24.7378 22.5 26.8839 21.6111 28.4662 20.0287C30.0486 18.4464 30.9375 16.3003 30.9375 14.0625C30.9375 11.8247 30.0486 9.67863 28.4662 8.09629C26.8839 6.51395 24.7378 5.625 22.5 5.625C20.2622 5.625 18.1161 6.51395 16.5338 8.09629C14.9514 9.67863 14.0625 11.8247 14.0625 14.0625C14.0625 16.3003 14.9514 18.4464 16.5338 20.0287C18.1161 21.6111 20.2622 22.5 22.5 22.5ZM22.5 25.3125C19.5163 25.3125 16.6548 24.1272 14.545 22.0175C12.4353 19.9077 11.25 17.0462 11.25 14.0625C11.25 11.0788 12.4353 8.21733 14.545 6.10755C16.6548 3.99776 19.5163 2.8125 22.5 2.8125C25.4837 2.8125 28.3452 3.99776 30.455 6.10755C32.5647 8.21733 33.75 11.0788 33.75 14.0625C33.75 17.0462 32.5647 19.9077 30.455 22.0175C28.3452 24.1272 25.4837 25.3125 22.5 25.3125Z" fill="#2F2E41"/>
<path d="M22.5 22.5C22.873 22.5 23.2306 22.6482 23.4944 22.9119C23.7581 23.1756 23.9062 23.5333 23.9062 23.9062V35.1562C23.9062 35.5292 23.7581 35.8869 23.4944 36.1506C23.2306 36.4143 22.873 36.5625 22.5 36.5625C22.127 36.5625 21.7694 36.4143 21.5056 36.1506C21.2419 35.8869 21.0938 35.5292 21.0938 35.1562V23.9062C21.0938 23.5333 21.2419 23.1756 21.5056 22.9119C21.7694 22.6482 22.127 22.5 22.5 22.5Z" fill="#2F2E41"/>
<path d="M16.875 28.5244V31.3791C11.8547 32.1834 8.4375 33.9216 8.4375 35.1563C8.4375 36.8128 14.5856 39.375 22.5 39.375C30.4144 39.375 36.5625 36.8128 36.5625 35.1563C36.5625 33.9188 33.1453 32.1834 28.125 31.3791V28.5244C34.6781 29.4891 39.375 32.0963 39.375 35.1563C39.375 39.0375 31.8206 42.1875 22.5 42.1875C13.1794 42.1875 5.625 39.0375 5.625 35.1563C5.625 32.0934 10.3219 29.4891 16.875 28.5244Z" fill="#2F2E41"/>
</svg>
