<svg width="98" height="38" viewBox="0 0 192 78" fill="none" xmlns="http://www.w3.org/2000/svg">
<path d="M180.75 16.125H135.75C132.656 16.125 130.125 18.6562 130.125 21.75V66.75C130.125 69.8438 132.656 72.375 135.75 72.375H180.75C183.844 72.375 186.375 69.8438 186.375 66.75V21.75C186.375 18.6562 183.844 16.125 180.75 16.125ZM135.75 21.75H147V49.875H135.75V21.75ZM135.75 66.75V55.5H147V66.75H135.75ZM180.75 66.75H152.625V38.625H180.75V66.75ZM180.75 33H152.625V21.75H180.75V33Z" fill="#FF6584"/>
<path d="M5.976 70V19.6H30.6C36.936 19.6 41.688 20.8 44.856 23.2C48.072 25.6 49.68 28.768 49.68 32.704C49.68 35.344 49.032 37.648 47.736 39.616C46.44 41.536 44.664 43.024 42.408 44.08C40.152 45.136 37.56 45.664 34.632 45.664L36 42.712C39.168 42.712 41.976 43.24 44.424 44.296C46.872 45.304 48.768 46.816 50.112 48.832C51.504 50.848 52.2 53.32 52.2 56.248C52.2 60.568 50.496 63.952 47.088 66.4C43.68 68.8 38.664 70 32.04 70H5.976ZM17.568 61.216H31.176C34.2 61.216 36.48 60.736 38.016 59.776C39.6 58.768 40.392 57.184 40.392 55.024C40.392 52.912 39.6 51.352 38.016 50.344C36.48 49.288 34.2 48.76 31.176 48.76H16.704V40.264H29.16C31.992 40.264 34.152 39.784 35.64 38.824C37.176 37.816 37.944 36.304 37.944 34.288C37.944 32.32 37.176 30.856 35.64 29.896C34.152 28.888 31.992 28.384 29.16 28.384H17.568V61.216ZM61.0307 70V19.6H70.6787L92.1347 55.168H87.0227L108.119 19.6H117.695L117.839 70H106.895L106.823 36.376H108.839L91.9907 64.672H86.7347L69.5267 36.376H71.9747V70H61.0307Z" fill="#FF6584"/>
</svg>
