<svg width="1080" height="118" viewBox="0 0 256 118" fill="none" xmlns="http://www.w3.org/2000/svg">
<path d="M241 21.5H181C176.875 21.5 173.5 24.875 173.5 29V89C173.5 93.125 176.875 96.5 181 96.5H241C245.125 96.5 248.5 93.125 248.5 89V29C248.5 24.875 245.125 21.5 241 21.5ZM181 29H196V66.5H181V29ZM181 89V74H196V89H181ZM241 89H203.5V51.5H241V89ZM241 44H203.5V29H241V44Z" fill="#2F2E41"/>
<path d="M7.968 93V25.8H40.8C49.248 25.8 55.584 27.4 59.808 30.6C64.096 33.8 66.24 38.024 66.24 43.272C66.24 46.792 65.376 49.864 63.648 52.488C61.92 55.048 59.552 57.032 56.544 58.44C53.536 59.848 50.08 60.552 46.176 60.552L48 56.616C52.224 56.616 55.968 57.32 59.232 58.728C62.496 60.072 65.024 62.088 66.816 64.776C68.672 67.464 69.6 70.76 69.6 74.664C69.6 80.424 67.328 84.936 62.784 88.2C58.24 91.4 51.552 93 42.72 93H7.968ZM23.424 81.288H41.568C45.6 81.288 48.64 80.648 50.688 79.368C52.8 78.024 53.856 75.912 53.856 73.032C53.856 70.216 52.8 68.136 50.688 66.792C48.64 65.384 45.6 64.68 41.568 64.68H22.272V53.352H38.88C42.656 53.352 45.536 52.712 47.52 51.432C49.568 50.088 50.592 48.072 50.592 45.384C50.592 42.76 49.568 40.808 47.52 39.528C45.536 38.184 42.656 37.512 38.88 37.512H23.424V81.288ZM81.3743 93V25.8H94.2383L122.846 73.224H116.03L144.158 25.8H156.926L157.118 93H142.526L142.43 48.168H145.118L122.654 85.896H115.646L92.7023 48.168H95.9663V93H81.3743Z" fill="#2F2E41"/>
</svg>
