<svg width="88" height="39" viewBox="0 0 128 59" fill="none" xmlns="http://www.w3.org/2000/svg">
<path d="M120.5 10.75H90.5C88.4375 10.75 86.75 12.4375 86.75 14.5V44.5C86.75 46.5625 88.4375 48.25 90.5 48.25H120.5C122.563 48.25 124.25 46.5625 124.25 44.5V14.5C124.25 12.4375 122.563 10.75 120.5 10.75ZM90.5 14.5H98V33.25H90.5V14.5ZM90.5 44.5V37H98V44.5H90.5ZM120.5 44.5H101.75V25.75H120.5V44.5ZM120.5 22H101.75V14.5H120.5V22Z" fill="#2F2E41"/>
<path d="M3.984 47V13.4H20.4C24.624 13.4 27.792 14.2 29.904 15.8C32.048 17.4 33.12 19.512 33.12 22.136C33.12 23.896 32.688 25.432 31.824 26.744C30.96 28.024 29.776 29.016 28.272 29.72C26.768 30.424 25.04 30.776 23.088 30.776L24 28.808C26.112 28.808 27.984 29.16 29.616 29.864C31.248 30.536 32.512 31.544 33.408 32.888C34.336 34.232 34.8 35.88 34.8 37.832C34.8 40.712 33.664 42.968 31.392 44.6C29.12 46.2 25.776 47 21.36 47H3.984ZM11.712 41.144H20.784C22.8 41.144 24.32 40.824 25.344 40.184C26.4 39.512 26.928 38.456 26.928 37.016C26.928 35.608 26.4 34.568 25.344 33.896C24.32 33.192 22.8 32.84 20.784 32.84H11.136V27.176H19.44C21.328 27.176 22.768 26.856 23.76 26.216C24.784 25.544 25.296 24.536 25.296 23.192C25.296 21.88 24.784 20.904 23.76 20.264C22.768 19.592 21.328 19.256 19.44 19.256H11.712V41.144ZM40.6871 47V13.4H47.1191L61.4231 37.112H58.0151L72.0791 13.4H78.4631L78.5591 47H71.2631L71.2151 24.584H72.5591L61.3271 43.448H57.8231L46.3511 24.584H47.9831V47H40.6871Z" fill="#2F2E41"/>
</svg>
