<svg width="480" height="303" viewBox="0 0 480 303" fill="none" xmlns="http://www.w3.org/2000/svg">
<g clip-path="url(#clip0_124_614)">
<path d="M350.241 73.7905C350.241 102.861 304.836 188.591 278.803 235.356C277.038 238.529 274.457 241.172 271.328 243.013C268.199 244.853 264.636 245.823 261.007 245.823C257.378 245.823 253.815 244.853 250.686 243.013C247.557 241.172 244.977 238.529 243.211 235.356C217.178 188.591 171.774 102.861 171.774 73.7905C171.774 33.0371 211.725 0 261.007 0C310.289 0 350.241 33.0371 350.241 73.7905Z" fill="#2F2E41"/>
<path d="M261.426 121.587C288.265 121.587 310.023 99.8122 310.023 72.952C310.023 46.0919 288.265 24.3174 261.426 24.3174C234.587 24.3174 212.83 46.0919 212.83 72.952C212.83 99.8122 234.587 121.587 261.426 121.587Z" fill="white"/>
<path d="M58.6357 116.957C74.7112 116.957 87.743 103.915 87.743 87.8272C87.743 71.739 74.7112 58.697 58.6357 58.697C42.5601 58.697 29.5283 71.739 29.5283 87.8272C29.5283 103.915 42.5601 116.957 58.6357 116.957Z" fill="#FF6584"/>
<path d="M261.007 303C299.92 303 331.466 300.563 331.466 297.557C331.466 294.55 299.92 292.113 261.007 292.113C222.094 292.113 190.549 294.55 190.549 297.557C190.549 300.563 222.094 303 261.007 303Z" fill="#2F2E41"/>
<path opacity="0.4" d="M52.709 113.732C54.1904 104.596 47.9909 95.988 38.8619 94.5054C29.733 93.0228 21.1316 99.2272 19.6501 108.363C18.1687 117.499 24.3682 126.108 33.4972 127.59C42.6261 129.073 51.2276 122.868 52.709 113.732Z" fill="#2F2E41"/>
<path d="M427.96 197.498C296.087 148.025 135.249 196.257 42.3881 294.919C41.8602 295.472 41.3324 296.034 40.8213 296.596H39.4053C39.8912 296.034 40.394 295.472 40.8883 294.919C135.677 188.753 294.378 146.441 427.96 197.498Z" fill="#3F3D56"/>
<path d="M463.997 213.909C452.34 207.687 440.304 202.206 427.96 197.499C440.337 202.129 452.378 207.612 463.997 213.909Z" fill="#3F3D56"/>
<path opacity="0.4" d="M391.823 164.549C401.966 164.549 410.189 156.319 410.189 146.168C410.189 136.017 401.966 127.787 391.823 127.787C381.679 127.787 373.457 136.017 373.457 146.168C373.457 156.319 381.679 164.549 391.823 164.549Z" fill="#2F2E41"/>
<path d="M393.868 287.549C395.287 292.8 400.149 296.052 400.149 296.052C400.149 296.052 402.709 290.791 401.29 285.54C399.87 280.289 395.009 277.037 395.009 277.037C395.009 277.037 392.449 282.298 393.868 287.549Z" fill="#3F3D56"/>
<path d="M395.954 286.421C399.848 290.215 400.324 296.047 400.324 296.047C400.324 296.047 394.485 295.728 390.591 291.934C386.696 288.14 386.22 282.307 386.22 282.307C386.22 282.307 392.059 282.626 395.954 286.421Z" fill="#2F2E41"/>
<path d="M2.81527 214.542V222.642L2.41309 223.078V214.458C2.54715 214.483 2.68124 214.517 2.81527 214.542Z" fill="#3F3D56"/>
<path d="M28.605 294.915C28.4877 295.108 28.362 295.301 28.2363 295.494H2.41309V214.945L2.81527 214.542L6.24217 218.441V212.739H17.1345V230.835L28.1358 243.337L28.2363 243.455C28.3704 243.874 28.496 244.293 28.6217 244.712C28.6226 244.719 28.6255 244.725 28.6301 244.729C30.28 250.013 31.6339 255.385 32.6854 260.82C35.0817 273.642 34.7214 285.398 28.605 294.915Z" fill="#CCCCCC"/>
<path d="M11.4803 259.066H4.54736V264.848H11.4803V259.066Z" fill="#3F3D56"/>
<path d="M11.4803 269.473H4.54736V275.255H11.4803V269.473Z" fill="#3F3D56"/>
<path d="M225.042 248.08L221.576 242.298L253.929 214.545C277.848 203.023 306.68 206.347 337.125 214.545V222.639L307.082 255.019L272.417 261.957L225.042 248.08Z" fill="#3F3D56"/>
<path d="M351.446 230.831C357.191 224.436 357.99 218.354 351.446 212.739H340.554V218.444L337.125 214.545L309.393 242.298L304.771 246.924L298.994 270.052L309.393 295.492H362.545V243.455L351.446 230.831Z" fill="#CCCCCC"/>
<path d="M221.576 242.298H309.393V295.492H221.576C210.952 283.989 216.471 263.022 221.576 242.298Z" fill="#F6F6F6"/>
<path d="M297.26 259.066H278.772V275.255H297.26V259.066Z" fill="#3F3D56"/>
<path d="M271.262 258.488H255.085V295.492H271.262V258.488Z" fill="#CCCCCC"/>
<path d="M236.597 264.27V258.488H229.665V264.27H236.019H236.597Z" fill="#3F3D56"/>
<path d="M236.019 268.895H229.665V274.678H236.597V268.895H236.019Z" fill="#3F3D56"/>
<path d="M248.152 258.488H241.219V264.27H248.152V258.488Z" fill="#3F3D56"/>
<path d="M248.152 268.895H241.219V274.677H248.152V268.895Z" fill="#3F3D56"/>
<path d="M334.236 264.848V259.066H327.303V264.848H333.658H334.236Z" fill="#3F3D56"/>
<path d="M333.658 269.474H327.303V275.255H334.236V269.474H333.658Z" fill="#3F3D56"/>
<path d="M345.791 259.066H338.858V264.848H345.791V259.066Z" fill="#3F3D56"/>
<path d="M345.791 269.473H338.858V275.255H345.791V269.473Z" fill="#3F3D56"/>
<path d="M68.677 150.944L62.8999 146.317L95.2535 117.407H177.293V142.848L124.141 178.697L68.677 150.944Z" fill="#3F3D56"/>
<path d="M192.25 133.624V117.985H181.358V121.815L177.292 117.407L150.716 146.317L140.317 153.256L124.192 271.156L148.51 295.492H205.024C213.684 251.899 220.55 207.116 205.024 147.473L192.25 133.624Z" fill="#CCCCCC"/>
<path d="M62.8991 146.317H150.716V295.492H62.8991C53.2895 237.539 48.5962 183.796 62.8991 146.317Z" fill="#F6F6F6"/>
<path d="M113.163 259.066H96.9863V295.492H113.163V259.066Z" fill="#CCCCCC"/>
<path d="M79.6537 269.474V263.692H72.7212V269.474H79.0764H79.6537Z" fill="#3F3D56"/>
<path d="M79.0764 274.099H72.7212V279.882H79.6537V274.099H79.0764Z" fill="#3F3D56"/>
<path d="M91.2088 263.691H84.2759V269.473H91.2088V263.691Z" fill="#3F3D56"/>
<path d="M126.451 274.099H120.096V279.882H127.029V274.099H126.451Z" fill="#3F3D56"/>
<path d="M138.584 263.691H131.651V269.473H138.584V263.691Z" fill="#3F3D56"/>
<path d="M138.584 274.099H131.651V279.881H138.584V274.099Z" fill="#3F3D56"/>
<path d="M175.559 153.834V148.052H168.626V153.834H174.982H175.559Z" fill="#3F3D56"/>
<path d="M174.982 158.46H168.626V164.242H175.559V158.46H174.982Z" fill="#3F3D56"/>
<path d="M187.115 148.052H180.182V153.834H187.115V148.052Z" fill="#3F3D56"/>
<path d="M187.115 158.459H180.182V164.241H187.115V158.459Z" fill="#3F3D56"/>
<path d="M175.559 186.214V180.431H168.626V186.214H174.982H175.559Z" fill="#3F3D56"/>
<path d="M174.982 190.839H168.626V196.621H175.559V190.839H174.982Z" fill="#3F3D56"/>
<path d="M187.115 180.431H180.182V186.213H187.115V180.431Z" fill="#3F3D56"/>
<path d="M187.115 190.839H180.182V196.621H187.115V190.839Z" fill="#3F3D56"/>
<path d="M175.559 218.593V212.81H168.626V218.593H174.982H175.559Z" fill="#3F3D56"/>
<path d="M174.982 223.218H168.626V229H175.559V223.218H174.982Z" fill="#3F3D56"/>
<path d="M187.115 212.81H180.182V218.592H187.115V212.81Z" fill="#3F3D56"/>
<path d="M187.115 223.218H180.182V229H187.115V223.218Z" fill="#3F3D56"/>
<path d="M175.559 250.971V245.189H168.626V250.971H174.982H175.559Z" fill="#3F3D56"/>
<path d="M174.982 255.597H168.626V261.379H175.559V255.597H174.982Z" fill="#3F3D56"/>
<path d="M187.115 245.189H180.182V250.971H187.115V245.189Z" fill="#3F3D56"/>
<path d="M187.115 255.597H180.182V261.379H187.115V255.597Z" fill="#3F3D56"/>
<path d="M72.7212 153.834H139.74V167.711C118.258 161.778 95.8571 162.203 72.7212 167.711V153.834Z" fill="#3F3D56"/>
<path d="M72.7212 181.587C93.6383 187.755 115.978 187.755 139.74 181.587V195.464H72.7212V181.587Z" fill="#3F3D56"/>
<path d="M72.7212 209.341H139.74V223.218C116.9 215.919 94.5368 215.575 72.7212 223.218V209.341Z" fill="#3F3D56"/>
<path d="M72.7212 237.094C94.578 245.525 116.938 245.174 139.74 237.094V250.971H72.7212V237.094Z" fill="#3F3D56"/>
<path d="M432.912 212.986H480V235.694L475.794 237.01L461.802 241.381L439.849 236.292L417.922 231.206L406.343 228.522L400.562 226.381C405.371 219.777 414.118 214.583 432.912 212.986Z" fill="#3F3D56"/>
<path d="M480 226.381V295.494H400.561C400.536 295.451 400.519 295.412 400.494 295.369V295.365C400.475 295.317 400.453 295.27 400.427 295.226C399.187 292.728 398.076 290.236 397.093 287.751C388.756 266.722 389.661 246.249 400.561 226.381H480Z" fill="#F6F6F6"/>
<path d="M450.825 259.066H434.648V295.492H450.825V259.066Z" fill="#CCCCCC"/>
<path d="M417.316 269.474V263.692H410.384V269.474H416.739H417.316Z" fill="#3F3D56"/>
<path d="M416.739 274.099H410.384V279.882H417.316V274.099H416.739Z" fill="#3F3D56"/>
<path d="M428.871 263.691H421.938V269.473H428.871V263.691Z" fill="#3F3D56"/>
<path d="M428.871 274.099H421.938V279.881H428.871V274.099Z" fill="#3F3D56"/>
<path d="M464.691 269.474V263.692H457.759V269.474H464.114H464.691Z" fill="#3F3D56"/>
<path d="M464.114 274.099H457.759V279.882H464.691V274.099H464.114Z" fill="#3F3D56"/>
<path d="M476.246 263.691H469.313V269.473H476.246V263.691Z" fill="#3F3D56"/>
<path d="M476.246 274.099H469.313V279.881H476.246V274.099Z" fill="#3F3D56"/>
<path d="M417.924 186.153H427.883C437.705 186.153 447.126 190.058 454.071 197.009C461.016 203.96 464.918 213.388 464.918 223.218H417.924V186.153Z" fill="#3F3D56"/>
<path d="M116.291 85.53H126.249C136.072 85.53 145.492 89.435 152.437 96.3859C159.383 103.337 163.285 112.764 163.285 122.594H116.291V85.53Z" fill="#3F3D56"/>
<path d="M275.486 178.606H285.445C295.267 178.606 304.687 182.511 311.632 189.462C318.578 196.413 322.48 205.841 322.48 215.671H275.486V178.606Z" fill="#3F3D56"/>
<path d="M464.918 237.094H417.924V250.971H464.918V237.094Z" fill="#3F3D56"/>
<path d="M480 294.919H2.41309V296.596H480V294.919Z" fill="#3F3D56"/>
<path d="M46.4609 228.671H44.7852V294.915H46.4609V228.671Z" fill="#3F3D56"/>
<path d="M61.9259 237.113C62.0326 260.277 45.7484 279.13 45.7484 279.13C45.7484 279.13 24.8944 260.027 29.1846 237.264C33.4993 214.372 46.9466 195.344 45.3621 195.247C45.3621 195.247 61.8192 213.949 61.9259 237.113Z" fill="#2F2E41"/>
<path d="M214.035 228.671H212.359V294.915H214.035V228.671Z" fill="#3F3D56"/>
<path d="M229.5 237.113C231.011 260.228 213.323 279.13 213.323 279.13C213.323 279.13 196.866 260.428 196.759 237.264C196.652 214.1 212.936 195.247 212.936 195.247C211.349 201.596 228.278 218.411 229.5 237.113Z" fill="#2F2E41"/>
<path d="M105.164 120.991L177.953 117.427L208.487 142.934L203.089 147.812L154.736 146.722L105.164 120.991Z" fill="#3F3D56"/>
<path d="M32.5346 239.363L28.6133 242.909L28.1357 243.337L27.1387 244.243L2.41307 243.689V214.458C1.60872 214.282 0.804357 214.114 0 213.955L2.00253 213.854L2.41307 214.198L6.24215 217.393L17.1345 226.499L29.3004 236.662L32.5346 239.363Z" fill="#3F3D56"/>
<path d="M264.359 217.421L337.149 213.857L367.683 239.365L362.285 244.242L313.932 243.153L264.359 217.421Z" fill="#3F3D56"/>
</g>
<defs>
<clipPath id="clip0_124_614">
<rect width="480" height="303" fill="white"/>
</clipPath>
</defs>
</svg>
