<?xml version="1.0" encoding="UTF-8"?>
<svg xmlns="http://www.w3.org/2000/svg" id="a" width="865.76" height="682.89" viewBox="0 0 865.76 682.89">
  <g>
    <g>
      <rect x="379.8" y="218.23" width="259.66" height="167.21" fill="#fff"></rect>
      <path d="M639.97,385.96H379.29V217.72h260.68v168.24Zm-259.66-1.03h258.63V218.75H380.32v166.19Z" fill="#002346"></path>
    </g>
    <g>
      <rect x="624.51" y="218.23" width="14.96" height="167.21" fill="#f69074"></rect>
      <path d="M639.98,385.96h-15.99V217.72h15.99v168.24Zm-14.96-1.03h13.93V218.75h-13.93v166.19Z" fill="#002346"></path>
    </g>
    <g>
      <rect x="379.8" y="417.39" width="343.94" height="166.54" fill="#fff"></rect>
      <path d="M724.26,584.44H379.29v-167.56h344.97v167.56Zm-343.94-1.03h342.92v-165.51H380.32v165.51Z" fill="#002346"></path>
    </g>
    <g>
      <rect x="540.9" y="454.77" width="51.66" height="48.26" fill="#fff"></rect>
      <path d="M593.07,503.54h-52.68v-49.28h52.68v49.28Zm-51.66-1.03h50.63v-47.23h-50.63v47.23Z" fill="#002346"></path>
    </g>
    <g>
      <polygon points="592.56 454.77 592.56 461.5 545.68 461.53 545.68 503.04 540.9 503.04 540.9 454.77 592.56 454.77" fill="#e6e7e8"></polygon>
      <path d="M546.19,503.55h-5.8v-49.29h52.68v7.76l-46.88,.03v41.5Zm-4.78-1.03h3.75v-41.5l46.88-.03v-5.7h-50.63v47.24Z" fill="#002346"></path>
    </g>
    <g>
      <rect x="618.39" y="454.77" width="51.66" height="48.26" fill="#fff"></rect>
      <path d="M670.56,503.54h-52.68v-49.28h52.68v49.28Zm-51.66-1.03h50.63v-47.23h-50.63v47.23Z" fill="#002346"></path>
    </g>
    <g>
      <polygon points="670.04 454.77 670.04 461.5 623.17 461.53 623.17 503.04 618.39 503.04 618.39 454.77 670.04 454.77" fill="#e6e7e8"></polygon>
      <path d="M623.69,503.55h-5.81v-49.29h52.68v7.76l-46.87,.03v41.5Zm-4.79-1.03h3.76v-41.5l46.87-.03v-5.7h-50.63v47.24Z" fill="#002346"></path>
    </g>
    <g>
      <rect x="379.8" y="385.44" width="362.97" height="13.59" fill="#f69074"></rect>
      <path d="M743.28,399.54H379.29v-14.62h364v14.62Zm-362.97-1.03h361.94v-12.56H380.32v12.56Z" fill="#002346"></path>
    </g>
    <g>
      <rect x="379.8" y="399.04" width="353.46" height="19.04" fill="#fbe493"></rect>
      <path d="M733.77,418.59H379.29v-20.06h354.48v20.06Zm-353.46-1.03h352.43v-18.01H380.32v18.01Z" fill="#002346"></path>
    </g>
    <g>
      <rect x="434.18" y="476.52" width="62.54" height="107.4" fill="#fff"></rect>
      <path d="M497.23,584.44h-63.56v-108.43h63.56v108.43Zm-62.54-1.03h61.51v-106.37h-61.51v106.37Z" fill="#002346"></path>
    </g>
    <g>
      <polygon points="496.72 476.52 496.72 481.96 440.4 481.96 440.4 583.92 434.18 583.92 434.18 476.52 496.72 476.52" fill="#e6e7e8"></polygon>
      <path d="M440.91,584.44h-7.24v-108.43h63.56v6.46h-56.32v101.97Zm-6.22-1.03h5.19v-101.97h56.32v-4.41h-61.51v106.37Z" fill="#002346"></path>
    </g>
    <g>
      <rect x="540.22" y="540.42" width="171.29" height="43.5" fill="#e6e7e8"></rect>
      <path d="M712.03,584.43h-172.32v-44.53h172.32v44.53Zm-171.29-1.03h170.27v-42.47h-170.27v42.47Z" fill="#002346"></path>
    </g>
    <g>
      <rect x="552.45" y="540.42" width="16.31" height="43.5" fill="#fff"></rect>
      <path d="M569.28,584.43h-17.34v-44.53h17.34v44.53Zm-16.31-1.03h15.29v-42.47h-15.29v42.47Z" fill="#002346"></path>
    </g>
    <g>
      <rect x="581" y="540.42" width="16.31" height="43.5" fill="#fff"></rect>
      <path d="M597.83,584.43h-17.34v-44.53h17.34v44.53Zm-16.31-1.03h15.29v-42.47h-15.29v42.47Z" fill="#002346"></path>
    </g>
    <g>
      <rect x="610.91" y="540.42" width="16.31" height="43.5" fill="#fff"></rect>
      <path d="M627.74,584.43h-17.34v-44.53h17.34v44.53Zm-16.31-1.03h15.29v-42.47h-15.29v42.47Z" fill="#002346"></path>
    </g>
    <g>
      <rect x="638.1" y="540.42" width="16.31" height="43.5" fill="#fff"></rect>
      <path d="M654.93,584.43h-17.34v-44.53h17.34v44.53Zm-16.31-1.03h15.29v-42.47h-15.29v42.47Z" fill="#002346"></path>
    </g>
    <g>
      <rect x="668.01" y="540.42" width="16.31" height="43.5" fill="#fff"></rect>
      <path d="M684.84,584.43h-17.34v-44.53h17.34v44.53Zm-16.31-1.03h15.29v-42.47h-15.29v42.47Z" fill="#002346"></path>
    </g>
    <g opacity=".2">
      <rect x="696.56" y="540.42" width="14.96" height="43.5" fill="#fff"></rect>
    </g>
    <g>
      <polygon points="647.62 200.55 647.62 218.23 389.64 218.23 353.89 200.55 647.62 200.55" fill="#f69074"></polygon>
      <path d="M648.13,218.75H389.52l-.11-.05-37.72-18.66h296.44v18.71Zm-258.37-1.03h257.34v-16.65H356.09l33.67,16.65Z" fill="#002346"></path>
    </g>
    <g>
      <polygon points="653.74 186.96 653.74 201.24 353.29 201.24 326.41 186.96 653.74 186.96" fill="#f69074"></polygon>
      <path d="M654.25,201.75H353.17l-.11-.06-28.71-15.25h329.91v15.31Zm-300.83-1.03h299.8v-13.25H328.47l24.95,13.25Z" fill="#002346"></path>
    </g>
    <g>
      <rect x="430.1" y="252.22" width="156.33" height="95.17" fill="#fff"></rect>
      <path d="M586.95,347.9h-157.36v-96.19h157.36v96.19Zm-156.33-1.03h155.31v-94.14h-155.31v94.14Z" fill="#002346"></path>
    </g>
    <g>
      <polygon points="586.45 252.22 586.45 267.17 440.98 267.17 440.98 347.37 430.1 347.37 430.1 252.22 586.45 252.22" fill="#e6e7e8"></polygon>
      <path d="M441.49,347.89h-11.91v-96.18h157.37v15.98h-145.46v80.21Zm-10.88-1.03h9.85v-80.21h145.46v-13.92h-155.32v94.13Z" fill="#002346"></path>
    </g>
    <g opacity=".2">
      <polygon points="478.17 267.17 440.98 319.71 440.98 341.06 490.07 267.17 478.17 267.17" fill="#fff"></polygon>
    </g>
    <g>
      <polygon points="267.65 180.85 148 239.56 148 583.92 385.25 583.92 385.25 239.06 267.65 180.85" fill="#f69074"></polygon>
      <path d="M385.76,584.44H147.48V239.24l.29-.14,119.88-58.83,.23,.11,117.88,58.35v345.7Zm-237.25-1.03h236.22V239.38l-117.08-57.96-119.14,58.46v343.53Z" fill="#002346"></path>
    </g>
    <g>
      <rect x="132.38" y="583.7" width="600.88" height="23.34" fill="#f69074"></rect>
      <path d="M733.77,607.56H131.86v-24.38H733.77v24.38Zm-600.88-1.03H732.74v-22.31H132.9v22.31Z" fill="#002346"></path>
    </g>
    <g>
      <path d="M288.72,270.57c0,12.39-10.04,22.43-22.43,22.43h-.01c-1.16,0-2.31-.09-3.45-.27-3.32-.51-6.48-1.76-9.25-3.67-.51-.36-1.03-.74-1.52-1.14h0c-9.54-7.9-10.88-22.03-2.99-31.58,7.32-8.85,20.14-10.74,29.7-4.38,.44,.3,.86,.6,1.26,.92,5.45,4.25,8.63,10.76,8.64,17.67h.04Z" fill="#fff"></path>
      <path d="M266.3,293.51c-1.19,0-2.37-.09-3.54-.27-3.38-.52-6.65-1.81-9.46-3.75-.58-.41-1.09-.79-1.55-1.16-4.72-3.91-7.64-9.42-8.22-15.52-.58-6.1,1.26-12.06,5.16-16.78,7.51-9.08,20.57-11,30.38-4.48,.4,.27,.86,.59,1.31,.96,5.49,4.28,8.7,10.71,8.82,17.67h0s.04,.41,.04,.41c0,12.65-10.29,22.94-22.94,22.94Zm.06-44.8c-6.33,0-12.56,2.74-16.88,7.96-3.73,4.51-5.48,10.2-4.93,16.03s3.34,11.09,7.85,14.82c.44,.36,.93,.72,1.49,1.11,2.68,1.85,5.81,3.09,9.03,3.58,1.12,.17,2.25,.26,3.37,.26,11.96,0,21.71-9.62,21.92-21.52h-.04v-.41c0-6.8-3.08-13.09-8.44-17.27-.43-.35-.86-.65-1.24-.9-3.73-2.48-7.95-3.68-12.13-3.68Z" fill="#002346"></path>
    </g>
    <g>
      <path d="M280.08,252.9c-1.95-.67-3.96-1.14-6-1.39-14.55-1.74-26.5,10.99-24.72,25.53,.46,3.71,1.36,7.36,2.69,10.86-9.67-7.74-11.23-21.85-3.49-31.51,7.74-9.67,21.85-11.23,31.51-3.49h0Z" fill="#e6e7e8"></path>
      <path d="M253.21,289.48l-1.47-1.18c-4.78-3.83-7.79-9.29-8.46-15.38-.67-6.09,1.06-12.08,4.89-16.86,3.83-4.78,9.29-7.79,15.38-8.46,6.09-.68,12.08,1.06,16.86,4.89l2.31,1.85-2.8-.97c-1.91-.66-3.89-1.12-5.9-1.36-6.57-.79-13.03,1.47-17.74,6.19-4.93,4.94-7.26,11.78-6.41,18.77,.46,3.67,1.35,7.29,2.66,10.74l.67,1.76Zm12.89-40.98c-6.43,0-12.8,2.81-17.12,8.21-3.66,4.57-5.32,10.29-4.67,16.1,.57,5.17,2.9,9.86,6.62,13.41-.98-2.96-1.67-6.02-2.06-9.11-.89-7.3,1.55-14.45,6.7-19.62,4.93-4.94,11.71-7.31,18.59-6.49,1.04,.13,2.07,.31,3.08,.54-3.45-2.04-7.3-3.04-11.14-3.04Z" fill="#002346"></path>
    </g>
    <g>
      <rect x="177.24" y="326.99" width="73.41" height="67.97" fill="#fff"></rect>
      <path d="M251.16,395.47h-74.43v-69h74.43v69Zm-73.41-1.03h72.38v-66.94h-72.38v66.94Z" fill="#002346"></path>
    </g>
    <g>
      <polygon points="250.66 326.98 250.66 336.46 184.05 336.5 184.05 394.96 177.24 394.96 177.24 326.98 250.66 326.98" fill="#e6e7e8"></polygon>
      <path d="M184.56,395.47h-7.83v-69.01h74.44v10.51l-66.61,.04v58.46Zm-6.8-1.03h5.77v-58.46l66.61-.04v-8.46h-72.39v66.95Z" fill="#002346"></path>
    </g>
    <g>
      <rect x="279.2" y="326.99" width="73.41" height="67.97" fill="#fff"></rect>
      <path d="M353.12,395.47h-74.43v-69h74.43v69Zm-73.41-1.03h72.38v-66.94h-72.38v66.94Z" fill="#002346"></path>
    </g>
    <g>
      <polygon points="352.62 326.98 352.62 336.46 286 336.5 286 394.96 279.2 394.96 279.2 326.98 352.62 326.98" fill="#e6e7e8"></polygon>
      <path d="M286.52,395.47h-7.83v-69.01h74.44v10.51l-66.61,.04v58.46Zm-6.8-1.03h5.77v-58.46l66.61-.04v-8.46h-72.39v66.95Z" fill="#002346"></path>
    </g>
    <g>
      <rect x="208.52" y="450.7" width="115.56" height="131.86" fill="#fff"></rect>
      <path d="M324.59,583.07h-116.59v-132.89h116.59v132.89Zm-115.56-1.03h114.53v-130.83h-114.53v130.83Z" fill="#002346"></path>
    </g>
    <g>
      <polygon points="324.07 450.7 324.07 458.84 217.35 458.84 217.35 582.56 208.52 582.56 208.52 450.7 324.07 450.7" fill="#e6e7e8"></polygon>
      <path d="M217.87,583.07h-9.86v-132.89h116.58v9.17h-106.71v123.72Zm-8.83-1.03h7.81v-123.72h106.71v-7.12h-114.52v130.83Z" fill="#002346"></path>
    </g>
    <g>
      <polygon points="421.27 233.86 416.98 243.98 413.21 252.9 267.65 180.85 120.83 252.9 111.31 233.86 266.29 157.25 326.41 186.96 351.15 199.2 353.89 200.55 389.64 218.23 421.27 233.86" fill="#fbe493"></polygon>
      <path d="M413.47,253.6l-.49-.24-145.33-71.94L120.6,253.58l-9.98-19.95,.46-.23,155.21-76.72,155.64,76.94-8.46,19.99Zm-301.47-19.51l9.06,18.12,146.59-71.94,.23,.11,145.07,71.81,7.65-18.09-154.32-76.28L112,234.09Z" fill="#002346"></path>
    </g>
    <rect x="194.92" y="433.02" width="144.1" height="17.67" fill="#f69074"></rect>
    <g>
      <rect x="708.8" y="418.29" width="14.96" height="165.41" fill="#f69074"></rect>
      <path d="M724.26,584.21h-15.98v-166.43h15.98v166.43Zm-14.96-1.02h13.94v-164.38h-13.94v164.38Z" fill="#002346"></path>
    </g>
    <g>
      <path d="M714.4,167.61c-47.61,22.41-170.89,80.32-182.1,82.97-13.88,3.29-16.17,8.12-25.68,11.67-9.51,3.55-27.57,7.76-48.55,9.04-20.98,1.28-28.1-1.6-34.54,1.94-6.44,3.54-10,13.85-14.84,22.26-4.84,8.41-20.99,33.25-20.99,36.15s.65,26.82,1.29,31.96c.45,4.07,2.01,15.25,4.83,20.89,.52,1.27,1.44,2.35,2.6,3.08,4.51,2.09,6.39-1.46,6.39-1.46,0,0,1.97,5.18,5.54,4.84,1.5-.14,3.16-1.88,4.59-3.83,1.84-.88,4.46-3.27,7.29-6.27,.4,.59,2.99,4.29,5.3,4.6,1.92,.27,5.78-2.51,4.52-9.19-.65-3.43,.24-6.99,2.47-9.67,2-2.41,3.58-4.27,4.39-5.02,3.51-3.25,17.09-13.6,31.62-17.47,14.54-3.86,27.11-9.29,32.28-14.14,5.17-4.85,22.02-23.89,25.18-24.53,3.16-.65,12.51-6.13,21.88-9.68,8.25-3.13,109.65-29.48,133.48-35.64l63.94-18.6m-313.29,95.22s-.04,0-.04-.02c.38-1.93,.63-3.83,.63-5.47,0,0,6.45-6.18,9.37-11.66,.38,1.22,.71,2.47,.99,3.71-3.11,4.48-7.12,9.44-10.94,13.44Z" fill="#f2b3c1" stroke="#002346" stroke-miterlimit="10" stroke-width="1.01"></path>
      <path d="M409.22,405c-2.89,0-5.69-1.28-7.98-3.67-2.5-2.61-4.1-6.25-4.48-10.24-.38-3.99,.48-7.86,2.44-10.9,1.98-3.08,4.85-4.95,8.06-5.26h0c6.58-.63,12.6,5.58,13.4,13.86,.38,3.99-.48,7.86-2.44,10.91-1.98,3.08-4.85,4.95-8.07,5.26-.31,.03-.63,.04-.94,.04Zm-1.86-29.05h0c-2.9,.28-5.49,1.98-7.3,4.79-1.83,2.85-2.65,6.49-2.28,10.25,.36,3.76,1.85,7.18,4.2,9.62,2.31,2.42,5.19,3.59,8.08,3.31,2.9-.28,5.49-1.98,7.3-4.79,1.83-2.85,2.65-6.49,2.28-10.25-.74-7.71-6.23-13.53-12.28-12.93Z" fill="#002346"></path>
      <g>
        <path d="M410.3,403.79c-2.86-6.32-10.3-9.13-16.62-6.28-3.03,1.37-5.39,3.88-6.57,6.99l-8.33,22.07c-2.28,6.55,1.19,13.72,7.74,15.99,6.31,2.19,13.23-.93,15.76-7.11l8.35-22.06c1.18-3.12,1.06-6.58-.32-9.62Zm-9.45-.12c-1.1-.42-1.64-1.65-1.22-2.75,.42-1.1,1.65-1.64,2.75-1.22,1.09,.42,1.64,1.64,1.23,2.74-.42,1.1-1.65,1.65-2.75,1.23Z" fill="#f69074"></path>
        <path d="M390.64,443.78c-1.43,0-2.88-.24-4.29-.73-3.3-1.15-5.95-3.51-7.48-6.66s-1.73-6.69-.58-9.99l8.34-22.08c1.24-3.26,3.67-5.84,6.84-7.28,3.18-1.44,6.74-1.55,10-.32,3.27,1.23,5.86,3.67,7.3,6.85h0c1.43,3.14,1.55,6.79,.33,10.01l-8.35,22.06c-2.07,5.05-6.94,8.14-12.11,8.14Zm8.21-46.88c-1.69,0-3.37,.36-4.96,1.08-2.93,1.32-5.17,3.71-6.3,6.71l-8.33,22.07c-1.05,3.03-.86,6.3,.54,9.2,1.4,2.9,3.85,5.08,6.89,6.13,6.05,2.1,12.69-.89,15.11-6.82l8.35-22.04c1.12-2.97,1.01-6.33-.31-9.22h0c-1.33-2.93-3.71-5.18-6.73-6.31-1.38-.52-2.83-.78-4.26-.78Zm2.76,7.41c-.31,0-.63-.06-.94-.17h0c-.66-.25-1.18-.75-1.46-1.39s-.3-1.36-.05-2.02c.52-1.36,2.05-2.04,3.41-1.52,1.35,.52,2.03,2.04,1.52,3.4-.4,1.05-1.41,1.7-2.48,1.7Zm-.57-1.13c.83,.32,1.77-.11,2.09-.94,.31-.83-.11-1.76-.93-2.07-.83-.32-1.77,.1-2.08,.93-.16,.4-.14,.84,.03,1.23s.49,.7,.89,.85h0Z" fill="#002346"></path>
      </g>
      <g>
        <path d="M407.21,412.12l-8.34,22.06c-1.87,4.57-7.09,6.76-11.66,4.88-4.39-1.8-6.61-6.72-5.06-11.2l8.34-22.1c.72-1.93,2.1-3.54,3.9-4.55,1.75,4.74,7.01,7.16,11.75,5.41h0c.4-.16,.79-.33,1.17-.54,.66,1.97,.62,4.1-.11,6.04Z" fill="#fff"></path>
        <path d="M390.58,440.24c-1.19,0-2.4-.23-3.57-.7-4.64-1.9-6.99-7.11-5.35-11.85l8.35-22.11c.76-2.04,2.23-3.75,4.13-4.82l.52-.29,.21,.56c.8,2.16,2.39,3.88,4.49,4.85,2.09,.96,4.44,1.05,6.6,.26,.38-.15,.75-.32,1.11-.51l.54-.29,.19,.58c.7,2.07,.66,4.34-.12,6.39l-8.34,22.06c-1.5,3.67-5.04,5.88-8.77,5.88Zm3.57-38.28c-1.45,.95-2.56,2.34-3.17,3.98l-8.34,22.1c-1.46,4.21,.63,8.85,4.77,10.55,2.08,.85,4.37,.84,6.45-.03,2.08-.87,3.69-2.5,4.54-4.58l8.34-22.05c.62-1.64,.72-3.44,.28-5.13-.22,.1-.45,.2-.67,.28-2.43,.9-5.05,.8-7.4-.28-2.16-.99-3.84-2.7-4.79-4.85Z" fill="#002346"></path>
      </g>
      <g>
        <path d="M396.8,429.93c-.44-.02-.88-.13-1.27-.33l-1.58-.6c-.93-.36-1.46-.17-1.67,.54l-.21,.55,4.11,1.56-.61,1.57-10.07-3.85,.92-2.39c.23-1.17,1.37-1.94,2.55-1.71,0,0,0,0,.01,0,.23,.05,.44,.13,.65,.25l.79,.31c.87,.21,1.51,.93,1.63,1.81h0c.63-.68,1.46-.65,2.52-.26l1.55,.61c.41,.19,.85,.29,1.29,.29l-.62,1.64Zm-9.25-1.56l3.08,1.18,.24-.62c.24-.6,.1-1.03-.7-1.36l-1.03-.38c-.71-.28-1.12-.14-1.34,.41l-.26,.76Z" fill="#f69074"></path>
        <path d="M395.87,433.9l-11.03-4.22,1.11-2.88c.26-1.36,1.66-2.31,3.12-2.03,.3,.07,.57,.17,.81,.3l.73,.28c.75,.18,1.39,.73,1.73,1.45,.82-.39,1.74-.15,2.41,.1l1.56,.61c.37,.17,.73,.25,1.11,.25h.74s-1.01,2.68-1.01,2.68h-.37c-.52-.03-1.02-.16-1.49-.4l-1.53-.58c-.52-.2-.73-.14-.8-.11-.08,.04-.15,.15-.21,.32l-.04,.11,4.12,1.56-.98,2.53Zm-9.7-4.81l9.11,3.49,.24-.61-4.1-1.56,.38-1.03c.13-.43,.38-.75,.73-.92,.42-.21,.95-.18,1.61,.07l1.58,.6c.26,.13,.5,.21,.75,.26l.24-.65c-.27-.06-.54-.14-.8-.26l-1.52-.59c-1.2-.44-1.65-.2-1.95,.13l-.74,.8-.15-1.08c-.09-.67-.59-1.22-1.24-1.38l-.86-.33c-.22-.12-.4-.18-.58-.22h0c-.97-.13-1.77,.44-1.94,1.3l-.77,2Zm4.77,1.12l-4.02-1.54,.42-1.23c.16-.4,.39-.66,.7-.8,.36-.16,.79-.13,1.31,.07l1.02,.38c1.28,.53,1.25,1.39,1,2.03l-.42,1.09Zm-2.73-2.15l2.14,.82,.05-.14c.11-.29,.18-.45-.42-.7l-1.01-.37c-.37-.14-.5-.1-.54-.09-.07,.03-.12,.14-.14,.21l-.09,.27Z" fill="#002346"></path>
      </g>
      <g>
        <path d="M392.55,423.66l.81-2.17,1.46,.55-.83,2.17,2.92,1.12,1.03-2.72,1.46,.54-1.64,4.37-10.05-3.83,1.63-4.38,1.46,.55-1.03,2.73,2.78,1.06Z" fill="#f69074"></path>
        <path d="M398.05,428.18l-11.01-4.2,1.99-5.34,2.42,.92-1.03,2.73,1.82,.69,.81-2.17,2.42,.92-.83,2.17,1.96,.75,1.03-2.72,2.42,.9-2.01,5.33Zm-9.69-4.79l9.09,3.47,1.28-3.4-.5-.19-1.03,2.73-3.88-1.49,.83-2.17-.5-.19-.81,2.17-3.75-1.42,1.03-2.73-.5-.19-1.28,3.42Z" fill="#002346"></path>
      </g>
      <g>
        <path d="M393.04,417.95h0l7.29,2.77-.53,1.46-10.06-3.84,.75-1.98,6.64,.7h0l-6.03-2.28,.54-1.46,10.05,3.83-.62,1.63-8.03-.83Z" fill="#f69074"></path>
        <path d="M400.11,422.85l-11.02-4.21,.54-1.44-.44-.17,.48,.05,.48-1.28,3.07,.32-2.79-1.05,.91-2.42,11.01,4.2-.94,2.48-4.52-.47,4.1,1.56-.89,2.42Zm-9.7-4.81l9.09,3.47,.18-.49-9.09-3.46-.18,.48Zm.32-.85l10.01,1.04,.1-.27-10-1.05-.11,.28Zm1.03-2.72l9.09,3.44,.18-.47-9.09-3.47-.18,.5Z" fill="#002346"></path>
      </g>
      <path d="M391.89,412.66l1.85-4.89,1.46,.54-.63,1.65,8.62,3.29-.61,1.57-8.62-3.28-.63,1.64-1.45-.53Z" fill="#f69074"></path>
      <g>
        <path d="M409.27,398.8l-17.01,7.98c-1.47,.64-2.15,2.36-1.51,3.83l.06,.11,10.44,22.38c.64,1.48,2.36,2.15,3.84,1.51,0,0,0,0,0,0h.11l4.96-2.32,17.79,38.12c.46,1.04,1.68,1.5,2.71,1.04,.01,0,.02,0,.03-.01h0l3.4-1.58c1.04-.46,1.51-1.67,1.05-2.71,0-.01-.01-.03-.02-.04h0l-17.79-38.12,4.97-2.31c1.47-.65,2.15-2.36,1.51-3.84-.02-.04-.03-.08-.05-.11l-10.45-22.4c-.63-1.48-2.34-2.17-3.82-1.54l-.23,.02Zm2.92,4.74c.59,1.25,.06,2.73-1.19,3.33,0,0,0,0,0,0h0l-.53,.25c-1.24,.58-2.71,.05-3.3-1.18,0,0,0-.02-.01-.03l-.25-.52c-.59-1.25-.05-2.73,1.19-3.32l.53-.26c1.25-.58,2.74-.03,3.32,1.22h0l.24,.51Z" fill="#fff"></path>
        <path d="M429.82,472.14c-.31,0-.62-.06-.91-.17-.64-.25-1.15-.73-1.43-1.35l-17.57-37.64-4.72,2.15c-1.71,.68-3.68-.12-4.42-1.82l-10.48-22.45c-.77-1.77,.03-3.79,1.75-4.55l17.17-8.02h.15c1.72-.69,3.69,.12,4.42,1.83l10.44,22.38s.04,.09,.07,.15c.74,1.71-.06,3.73-1.79,4.49l-4.5,2.09,17.58,37.65c.3,.68,.32,1.38,.07,2.02-.25,.64-.73,1.14-1.36,1.42l-3.39,1.58c-.36,.16-.73,.24-1.09,.24Zm-19.41-40.53l18.01,38.58c.17,.38,.47,.67,.86,.82s.8,.13,1.18-.03l3.42-1.59c.39-.17,.67-.47,.82-.86,.15-.38,.14-.8-.03-1.18l-18.03-38.62,5.44-2.53c1.22-.54,1.78-1.96,1.25-3.17l.42-.32-.47,.22-10.45-22.4c-.53-1.23-1.94-1.8-3.16-1.29l-.29,.05-16.93,7.94c-1.22,.54-1.78,1.95-1.26,3.16l.04,.07,10.45,22.4c.53,1.23,1.95,1.79,3.17,1.26l.21-.04,5.32-2.49Zm-1-23.75c-1.12,0-2.2-.63-2.71-1.72l-.26-.55c-.7-1.5-.06-3.29,1.44-4l.53-.25c1.52-.69,3.31-.03,4.01,1.47l.24,.51c.34,.72,.38,1.54,.11,2.3-.27,.76-.82,1.36-1.54,1.71l-.54,.25c-.41,.19-.84,.28-1.27,.28Zm.26-5.78c-.28,0-.56,.06-.83,.18l-.53,.25c-.99,.47-1.41,1.65-.95,2.64l.25,.52c.47,1.01,1.64,1.43,2.62,.97l.54-.25c.48-.23,.84-.63,1.02-1.13,.18-.5,.15-1.04-.08-1.51h0s-.24-.52-.24-.52c-.34-.72-1.06-1.15-1.81-1.15Z" fill="#002346"></path>
      </g>
      <path d="M410.08,404.98c-.26,0-.49-.2-.51-.47-.03-.28,.18-.53,.46-.56,2.46-.23,4.68-1.48,6.44-3.6,2.42-2.93,3.57-7.1,3.16-11.44-.03-.28,.18-.53,.46-.56,.28-.02,.53,.18,.56,.46,.44,4.6-.79,9.05-3.39,12.19-1.93,2.34-4.4,3.71-7.13,3.97-.02,0-.03,0-.05,0Z" fill="#002346"></path>
      <g>
        <path d="M111.44,421.89s60.78,3.1,116.2,12.91c11.19,1.98,21.33,3.58,30.4,4.88,25.29,3.62,42.24,4.85,50.05,5.26,2.87,.15,5.72-.57,8.14-2.12,6.04-3.87,19.64-10.25,32.58,.06,13.37,10.66,19.15,20.01,21.08,23.7,.6,1.15,1.52,2.09,2.64,2.73l22.4,12.81s9.82-1.74,15.87,0c6.05,1.74,14.59-4.04,18.97-6.34,7.73-3.9,16.07-6.45,24.66-7.52,0,0,14.93-5.75,25.89-2.92,0,0,8.09-3.45,15.01-3.45,1.79-.02,3.57,.35,5.21,1.08,1.87,.81,3.46,2.13,4.59,3.82,.52,2,.9,4.03,1.16,6.07,.58,4.12-9.24,1.58-26.83,19.25-7.88,7.91-31.71,19.18-40.25,25.24-6.03,4.28-31.2,8.22-38.52,10.27-5.2,1.53-12.12,7.48-19.05,5.51-6.92-1.97-64.63-29.68-78.48-36.59-13.85-6.91-85.41,3.95-128.09,2.54-2.78-.08-5.46-.17-8.01-.23-36.74-1.03-50.85,.23-50.85,.23" fill="#f2b3c1"></path>
        <path d="M384.55,534.04c-1.01,0-2.02-.13-3.04-.42-6.96-1.98-64.68-29.69-78.57-36.63-7.81-3.9-35.14-2-64.08,.02-22.39,1.56-45.55,3.17-63.81,2.57l-2.08-.06c-2.04-.06-4.01-.12-5.93-.16-36.28-1.01-50.66,.21-50.8,.22l-.09-1.01c.14-.01,14.56-1.25,50.91-.23,1.91,.04,3.89,.1,5.94,.16l2.08,.06c18.21,.6,41.34-1.01,63.71-2.57,30.34-2.11,56.54-3.94,64.6,.08,13.87,6.93,71.49,34.59,78.39,36.56,4.59,1.31,9.28-1.06,13.42-3.15,1.9-.96,3.7-1.87,5.35-2.36,2.19-.62,5.95-1.39,10.29-2.29,10.09-2.09,23.92-4.96,28.07-7.91,3.24-2.3,8.72-5.37,14.52-8.63,9.75-5.47,20.8-11.67,25.67-16.56,10.72-10.76,18.69-14.13,22.98-15.94,2.96-1.25,3.88-1.7,3.72-2.89-.25-2-.63-3.99-1.13-5.93-1.08-1.58-2.57-2.81-4.33-3.57-1.59-.71-3.23-1.04-5-1.04-6.74,0-14.74,3.38-14.82,3.41l-.16,.07-.17-.04c-10.68-2.76-25.43,2.84-25.58,2.9l-.12,.03c-8.56,1.07-16.8,3.58-24.49,7.47-.67,.35-1.44,.79-2.29,1.27-4.67,2.64-11.72,6.63-17.04,5.1-5.87-1.68-15.55,0-15.65,.01l-.18,.03-22.56-12.9c-1.22-.69-2.2-1.71-2.84-2.93-1.85-3.53-7.59-12.89-20.95-23.54-12.43-9.91-25.38-4.27-31.99-.03-2.49,1.6-5.41,2.36-8.44,2.2-7.86-.41-24.81-1.65-50.1-5.27-10.25-1.47-20.2-3.07-30.42-4.88-54.76-9.69-115.54-12.87-116.14-12.9l.05-1.01c.61,.03,61.44,3.21,116.27,12.91,10.2,1.81,20.14,3.4,30.38,4.88,25.24,3.62,42.17,4.85,50,5.26,2.82,.15,5.53-.56,7.84-2.04,5.51-3.53,19.76-10.59,33.17,.09,13.51,10.77,19.33,20.27,21.21,23.86,.55,1.05,1.4,1.93,2.45,2.52l22.24,12.72c1.41-.24,10.2-1.6,15.92,.04,4.9,1.41,11.74-2.46,16.27-5.01,.86-.49,1.64-.93,2.32-1.29,7.79-3.94,16.12-6.48,24.77-7.57,1.17-.44,15.23-5.65,25.97-2.96,1.2-.5,8.55-3.43,15.05-3.43,1.89-.04,3.7,.36,5.42,1.12,1.95,.84,3.62,2.23,4.81,4l.07,.16c.52,2.01,.91,4.08,1.17,6.13,.28,2-1.36,2.7-4.32,3.95-4.22,1.78-12.08,5.1-22.65,15.72-4.96,4.98-16.08,11.22-25.89,16.72-5.78,3.24-11.24,6.31-14.43,8.57-4.33,3.08-17.71,5.85-28.45,8.07-4.33,.9-8.07,1.67-10.22,2.28-1.56,.46-3.31,1.35-5.17,2.29-3.42,1.73-7.2,3.64-11.1,3.64Z" fill="#002346"></path>
      </g>
      <path d="M384.95,511.28c-12.72,0-28.57-3.88-29.63-4.14-6.25-1.04-8.9-4.3-9.01-4.44l-5.33-6.98c-2.26-2.96-5.23-5.41-8.57-7.09-3.49-1.75-7.15-3.3-7.18-3.32-.26-.11-.38-.41-.27-.67,.11-.26,.41-.38,.67-.27,.04,.02,3.73,1.58,7.24,3.34,3.48,1.75,6.57,4.3,8.92,7.38l5.33,6.97s2.54,3.08,8.41,4.06c.45,.11,40.8,9.99,44.17-1.2,.15-.38,3.08-8.48-12.13-15.32-.16-.08-12.5-6.75-20.3-9.13-1.9-.58-3.57-1.53-4.95-2.82l-.27-.25c-1.81-1.72-3.06-3.92-3.6-6.38l-2.05-9.31c-.06-.28,.11-.55,.39-.61,.27-.06,.55,.11,.61,.39l2.05,9.31c.5,2.25,1.64,4.28,3.3,5.85l.26,.25c1.26,1.19,2.79,2.06,4.54,2.59,7.9,2.4,20.33,9.12,20.46,9.19,16.12,7.25,12.79,16.2,12.64,16.58-1.37,4.57-7.96,6.01-15.71,6.01Z" fill="#002346"></path>
      <path d="M330.27,492c-3.55,0-6.85-1.21-7.06-1.29-.27-.1-.4-.4-.3-.66,.1-.26,.39-.4,.66-.3,.07,.03,7.52,2.75,11.71-.06,.23-.16,.55-.09,.71,.14,.16,.24,.09,.55-.14,.71-1.63,1.1-3.65,1.46-5.59,1.46Z" fill="#002346"></path>
      <path d="M354.01,502.03c-.18,0-.36-.1-.46-.28-.13-.25-.03-.56,.22-.69,7.37-3.86,5.72-11.85,5.64-12.18-.06-.28,.12-.55,.39-.61,.27-.06,.55,.11,.61,.39,.02,.09,1.9,9.08-6.17,13.31-.08,.04-.16,.06-.24,.06Z" fill="#002346"></path>
      <path d="M387.29,508.18c-.13,0-.26-.05-.36-.15-6.38-6.38-1.15-14.93-1.1-15.02,.15-.24,.47-.31,.71-.16,.24,.15,.31,.47,.16,.71-.2,.32-4.84,7.95,.96,13.75,.2,.2,.2,.53,0,.73-.1,.1-.23,.15-.36,.15Z" fill="#002346"></path>
      <path d="M360.16,474.63c-.16,0-.32-.08-.42-.22-.16-.23-.11-.55,.13-.71,2.91-2.03,2.66-8.79,2.66-8.86-.01-.28,.21-.52,.49-.53,0,0,.01,0,.02,0,.27,0,.5,.22,.51,.49,.01,.3,.27,7.39-3.1,9.75-.09,.06-.19,.09-.29,.09Z" fill="#002346"></path>
      <path d="M362.67,477.8c-.2,0-.39-.12-.47-.31-.11-.26,.01-.56,.27-.67,2.37-1,3.8-4.72,3.81-4.76,.1-.27,.4-.4,.66-.3,.27,.1,.4,.4,.3,.66-.06,.17-1.6,4.16-4.37,5.34-.07,.03-.13,.04-.2,.04Z" fill="#002346"></path>
      <path d="M391.89,489.28h0c-.28,0-.51-.23-.51-.52,.02-5.5,3.2-7.06,3.34-7.12,.25-.12,.56-.01,.68,.25,.12,.26,.01,.56-.24,.68-.11,.05-2.73,1.38-2.75,6.2,0,.28-.23,.51-.51,.51Z" fill="#002346"></path>
      <path d="M413,488.59c-.14,0-.27-.05-.37-.16-2.26-2.37-.26-6.1-.17-6.25,.14-.25,.45-.34,.7-.2,.25,.14,.34,.45,.2,.7-.02,.03-1.73,3.23,.01,5.05,.2,.21,.19,.53-.02,.73-.1,.09-.23,.14-.35,.14Z" fill="#002346"></path>
      <path d="M405.89,523.05c-.18,0-.36-.1-.45-.27-.13-.25-.04-.56,.21-.7,5.65-3.06,30.24-8.4,32.09-8.8l28.74-15.99c.1-.07,14.51-10.37,20.5-14.73,1.52-1.11,2.14-3.11,1.5-4.87-1.33-3.68-3.63-6-6.82-6.9-11.39-3.2-30.77,12.17-30.96,12.33-.04,.04-.09,.06-.15,.08l-25.22,9.04c-.76,.27-1.55,.41-2.35,.41h-17.62c-.28,0-.51-.23-.51-.51s.23-.51,.51-.51h17.62c.68,0,1.36-.12,2.01-.35l25.14-9.01c1.48-1.18,20.16-15.74,31.82-12.46,3.53,.99,6.05,3.53,7.51,7.54,.79,2.18,.02,4.67-1.86,6.05-5.99,4.37-20.41,14.66-20.55,14.77l-28.86,16.06s-.09,.04-.14,.05c-.26,.06-26.27,5.67-31.9,8.71-.08,.04-.16,.06-.24,.06Z" fill="#002346"></path>
      <path d="M423.76,489.28c-.24,0-.45-.16-.5-.4-.06-.28,.11-.55,.39-.61l26.61-6.04c.28-.06,.55,.11,.61,.39s-.11,.55-.39,.61l-26.61,6.04s-.08,.01-.11,.01Z" fill="#002346"></path>
      <path d="M459.49,477.04c-.18,0-.36-.1-.45-.27-.13-.25-.04-.56,.21-.7l20.83-11.19c.25-.14,.56-.04,.7,.21,.13,.25,.04,.56-.21,.7l-20.83,11.19c-.08,.04-.16,.06-.24,.06Z" fill="#002346"></path>
      <path d="M402.83,387.3c-.06,0-.13-.01-.19-.04-.26-.11-.39-.41-.28-.67,.06-.14,5.59-13.97-.49-23.96-.11-.18-.1-.41,.03-.58,.05-.06,4.61-6.34,4.25-24.39,0-.14,.05-.27,.15-.37,.13-.13,12.62-12.74,14.76-22.55,.05-.23,.25-.4,.48-.4,.02,0,2.89-.23,6.85-5.41,.07-.09,.18-.16,.29-.19,.18-.04,4.44-1,7.18,.95,.23,.17,.28,.49,.12,.72-.17,.23-.49,.28-.72,.12-2.07-1.49-5.38-.98-6.17-.83-3.42,4.41-6.12,5.38-7.11,5.6-2.29,9.56-13.3,21.03-14.8,22.56,.29,16.36-3.35,23.09-4.26,24.52,6.08,10.41,.63,24.02,.39,24.6-.08,.2-.27,.32-.48,.32Z" fill="#002346"></path>
      <path d="M404.76,338.49c-1.56,0-3.86-.51-6.51-2.74-.22-.18-.24-.51-.06-.72,.18-.22,.51-.24,.72-.06,4.28,3.6,7.41,2.28,7.54,2.22,.26-.11,.56,0,.68,.26,.12,.26,0,.56-.25,.68-.07,.03-.85,.37-2.12,.37Z" fill="#002346"></path>
      <path d="M400.16,363.59c-.83,0-1.88-.19-3.18-.75-.26-.11-.38-.41-.27-.67,.11-.26,.42-.38,.67-.27,3.28,1.42,4.49,.18,4.54,.13,.19-.2,.51-.22,.72-.03,.21,.19,.23,.5,.04,.71-.04,.05-.8,.89-2.53,.89Z" fill="#002346"></path>
      <path d="M428.81,309.75c-.28,0-.5-.22-.51-.5-.09-2.5-3.48-6.24-3.51-6.28-.19-.21-.18-.53,.03-.73,.21-.19,.53-.18,.73,.03,.15,.16,3.68,4.06,3.78,6.93,0,.28-.21,.52-.5,.53h-.02Z" fill="#002346"></path>
      <path d="M437.14,306.45c-.1,0-.2-.03-.29-.09-6.89-4.64-5.45-9.96-5.39-10.19,.08-.27,.36-.43,.64-.35,.27,.08,.43,.36,.35,.63-.06,.2-1.26,4.85,4.98,9.05,.24,.16,.3,.48,.14,.71-.1,.15-.26,.23-.43,.23Z" fill="#002346"></path>
      <path d="M433.85,320.21c-8.99,0-12.54-4.84-12.7-5.06-.16-.23-.11-.55,.12-.71,.23-.16,.55-.11,.72,.12,.04,.06,4.27,5.75,15.08,4.43,.28-.05,.54,.17,.57,.45,.03,.28-.17,.54-.45,.57-1.19,.14-2.3,.21-3.34,.21Z" fill="#002346"></path>
      <path d="M419,347.07s-.07,0-.11-.01c-.28-.06-.46-.33-.4-.61l1.89-8.92c.01-.05,.03-.1,.06-.15l8.59-15.11c.14-.25,.46-.33,.7-.19,.25,.14,.33,.45,.19,.7l-8.55,15.04-1.87,8.84c-.05,.24-.26,.41-.5,.41Z" fill="#002346"></path>
      <path d="M413.43,339.04c-2.36,0-4.43-.73-4.57-.78-.27-.1-.4-.39-.31-.66,.1-.27,.4-.41,.66-.31,.05,.02,5.38,1.9,8.28-.51,.22-.18,.54-.15,.72,.07,.18,.22,.15,.54-.07,.72-1.36,1.13-3.1,1.47-4.71,1.47Z" fill="#002346"></path>
      <path d="M420.23,381.37c-.24,0-.46-.17-.5-.41l-3.15-15.99c0-.05-.01-.1,0-.15l1.57-14.68c.03-.28,.29-.49,.57-.46,.28,.03,.49,.28,.46,.57l-1.57,14.6,3.13,15.92c.05,.28-.13,.55-.4,.6-.03,0-.07,0-.1,0Z" fill="#002346"></path>
      <path d="M412.93,387.64c-.2,0-.38-.11-.47-.3-.17-.38-4.25-9.59-2.9-25.02,.02-.28,.28-.48,.56-.47,.28,.02,.49,.27,.47,.56-1.33,15.17,2.77,24.41,2.81,24.51,.12,.26,0,.56-.26,.68-.07,.03-.14,.05-.21,.05Z" fill="#002346"></path>
      <path d="M427.58,334.53c-.43,0-.7-.06-.73-.07-.27-.07-.44-.35-.37-.63,.07-.27,.35-.44,.62-.37,.1,.02,2.38,.53,5.09-2.54,.19-.21,.51-.23,.72-.04,.21,.19,.23,.51,.04,.72-2.25,2.54-4.33,2.93-5.39,2.93Z" fill="#002346"></path>
      <path d="M441.96,320.12s-.1,0-.15-.02c-.27-.08-.43-.37-.35-.64,1.16-3.9-1.16-7.7-1.19-7.74-.15-.24-.08-.56,.17-.71,.24-.15,.56-.07,.71,.17,.11,.17,2.59,4.24,1.3,8.58-.07,.22-.27,.37-.49,.37Z" fill="#002346"></path>
      <path d="M442.94,323.82c-.08,0-.17-.02-.25-.06-.25-.14-.34-.45-.2-.7,.03-.06,3.3-6.2,1.32-16.14-.06-.28,.12-.55,.4-.6,.28-.05,.55,.12,.6,.4,2.07,10.34-1.28,16.58-1.42,16.84-.09,.17-.27,.27-.45,.27Z" fill="#002346"></path>
      <path d="M431.47,468.12c-.19,0-.38-.11-.46-.29l-17.47-36.99c-.12-.26-.01-.56,.24-.68l2.22-1.07c.26-.12,.56-.02,.69,.24s.02,.56-.24,.69l-1.76,.84,17.25,36.52c.12,.26,.01,.56-.25,.68-.07,.03-.15,.05-.22,.05Z" fill="#002346"></path>
    </g>
    <g>
      <path d="M325.96,158.95v-6.33h79.24c9.35,0,16.93-7.59,16.93-16.94v-15.41h61.78c3.74-.05,6.73-3.11,6.7-6.84v-30.82c0-3.74-3.04-6.76-6.77-6.76h-134.02c-3.74,0-6.77,3.04-6.77,6.78v30.89c0,3.74,3.03,6.78,6.77,6.79h61.64v12.72c0,4.91-3.98,8.89-8.89,8.89h-76.58v-6.31l-15.65,11.63,15.62,11.71Z" fill="#fff"></path>
      <path d="M326.47,159.98l-16.99-12.74,17.02-12.65v6.82h76.07c4.62,0,8.37-3.76,8.37-8.37v-12.21h-61.13c-4.02-.01-7.28-3.29-7.28-7.3v-30.89c0-4.02,3.27-7.29,7.28-7.29h134.02c4.01,0,7.28,3.26,7.28,7.27v30.82c.04,4.01-3.2,7.31-7.21,7.36h-61.27v14.9c0,9.62-7.83,17.45-17.44,17.46h-78.73v6.84Zm-15.27-12.74l14.24,10.68v-5.82h79.75c9.05,0,16.42-7.37,16.42-16.43v-15.92h62.29c3.44-.04,6.22-2.88,6.18-6.32v-30.83c0-3.44-2.81-6.25-6.26-6.25h-134.02c-3.45,0-6.26,2.82-6.26,6.27v30.89c0,3.45,2.81,6.27,6.26,6.28h62.15v13.23c0,5.18-4.22,9.4-9.4,9.4h-77.09v-5.8l-14.28,10.61Z" fill="#002346"></path>
    </g>
    <g>
      <polygon points="470.65 94.68 477.81 95.73 472.62 100.77 473.85 107.91 467.44 104.55 461.02 107.91 462.25 100.77 457.08 95.73 464.24 94.68 467.44 88.19 470.65 94.68" fill="#f69074"></polygon>
      <path d="M460.34,108.85l1.35-7.9-5.72-5.58,7.92-1.16,3.53-7.18,3.56,7.18,7.92,1.16-5.74,5.58,1.35,7.9-7.09-3.72-7.09,3.72Zm7.09-4.88l5.73,3-1.09-6.38,4.64-4.51-6.4-.94-2.87-5.8-2.85,5.8-6.4,.94,4.62,4.51-1.09,6.38,5.73-3Z" fill="#002346"></path>
    </g>
    <g>
      <polygon points="445.35 94.68 452.51 95.73 447.32 100.77 448.55 107.91 442.13 104.55 435.72 107.91 436.95 100.77 431.77 95.73 438.94 94.68 442.13 88.19 445.35 94.68" fill="#f69074"></polygon>
      <path d="M435.04,108.85l1.36-7.9-5.74-5.58,7.93-1.16,3.54-7.18,3.56,7.18,7.92,1.16-5.74,5.58,1.36,7.9-7.1-3.72-7.09,3.72Zm7.09-4.88l5.74,3-1.1-6.38,4.64-4.51-6.4-.94-2.87-5.8-2.86,5.8-6.41,.94,4.64,4.51-1.1,6.38,5.73-3Z" fill="#002346"></path>
    </g>
    <g>
      <polygon points="420.05 94.68 427.21 95.73 422.03 100.77 423.25 107.91 416.84 104.55 410.43 107.91 411.65 100.77 406.46 95.73 413.64 94.68 416.84 88.19 420.05 94.68" fill="#f69074"></polygon>
      <path d="M423.93,108.85l-7.09-3.72-7.09,3.72,1.35-7.9-5.74-5.58,7.94-1.16,3.54-7.18,3.56,7.18,7.92,1.16-5.74,5.58,1.35,7.9Zm-16.36-12.76l4.63,4.51-1.09,6.38,5.73-3,5.73,3-1.09-6.38,4.64-4.51-6.4-.94-2.87-5.8-2.86,5.8-6.42,.94Z" fill="#002346"></path>
    </g>
    <g>
      <polygon points="394.74 94.68 401.91 95.73 396.73 100.77 397.95 107.91 391.54 104.55 385.12 107.91 386.36 100.77 381.17 95.73 388.33 94.68 391.54 88.19 394.74 94.68" fill="#f69074"></polygon>
      <path d="M384.44,108.85l1.36-7.9-5.74-5.58,7.92-1.16,3.56-7.18,3.54,7.18,7.93,1.16-5.73,5.58,1.35,7.9-7.09-3.72-7.1,3.72Zm7.1-4.88l5.73,3-1.09-6.38,4.63-4.51-6.41-.94-2.86-5.8-2.87,5.8-6.4,.94,4.64,4.51-1.1,6.38,5.74-3Z" fill="#002346"></path>
    </g>
    <g>
      <polygon points="369.45 94.68 376.62 95.73 371.43 100.77 372.66 107.91 366.24 104.55 359.83 107.91 361.05 100.77 355.86 95.73 363.02 94.68 366.24 88.19 369.45 94.68" fill="#f69074"></polygon>
      <path d="M373.34,108.85l-7.1-3.72-7.09,3.72,1.35-7.9-5.74-5.58,7.92-1.16,3.56-7.18,3.54,7.18,7.93,1.16-5.74,5.58,1.36,7.9Zm-7.1-4.88l5.74,3-1.1-6.38,4.64-4.51-6.41-.94-2.87-5.8-2.87,5.8-6.4,.94,4.64,4.51-1.09,6.38,5.73-3Z" fill="#002346"></path>
    </g>
  </g>
  <rect x="37.36" y="606.54" width="791.04" height="1.01" fill="#002346"></rect>
</svg>
