<svg width="643" height="412" viewBox="0 0 643 412" fill="none" xmlns="http://www.w3.org/2000/svg">
<g clip-path="url(#clip0_124_491)">
<path d="M339.082 405.615L349.469 405.614L354.41 364.526L339.08 364.527L339.082 405.615Z" fill="#FFB6B6"/>
<path d="M374.67 405.373C374.993 405.932 375.164 407.735 375.164 408.384C375.164 410.381 373.585 412 371.638 412H339.47C338.142 412 337.065 410.896 337.065 409.533V408.16C337.065 408.16 335.474 404.032 338.75 398.944C338.75 398.944 342.822 402.928 348.906 396.688L350.701 393.355L363.689 403.096L370.888 404.005C372.463 404.204 373.859 403.974 374.67 405.373Z" fill="#2F2E41"/>
<path d="M299.667 405.615L310.054 405.614L314.996 364.526L299.665 364.527L299.667 405.615Z" fill="#FFB6B6"/>
<path d="M335.255 405.373C335.578 405.932 335.749 407.735 335.749 408.384C335.749 410.381 334.171 412 332.224 412H300.056C298.727 412 297.651 410.896 297.651 409.533V408.16C297.651 408.16 296.059 404.032 299.335 398.944C299.335 398.944 303.407 402.928 309.492 396.688L311.286 393.355L324.274 403.096L331.473 404.005C333.048 404.204 334.445 403.974 335.255 405.373Z" fill="#2F2E41"/>
<path d="M292.017 184.906L278.879 215.446L295.521 382.517L316.104 383.864L324.425 236.105L332.308 384.313L356.833 381.618L362.65 193.474L292.017 184.906Z" fill="#2F2E41"/>
<path d="M343.78 63.1956L317.418 58.2554L312.093 63.7155L285.01 75.3218L289.389 162.45C289.389 162.45 280.631 168.434 285.01 176.67C289.389 184.906 288.513 194.786 288.513 194.786H362.65L359.46 145.384L368.219 82.5076L347.753 72.5709L343.78 63.1956Z" fill="#2F2E41"/>
<path d="M324.673 164.703C332.163 166.537 339.156 164.06 340.293 159.172C341.43 154.283 336.281 148.836 328.788 147.003C325.805 146.228 322.684 146.198 319.687 146.914L287.858 139.556L284.809 154.947L316.511 160.567C318.871 162.594 321.669 164.013 324.673 164.703Z" fill="#FFB6B6"/>
<path d="M290.265 79.8127L285.01 75.3215C285.01 75.3215 274.5 80.7109 272.748 85.2021C270.996 89.6932 260.485 132.808 260.485 132.808C260.485 132.808 258.423 156.437 263.834 159.444C269.244 162.45 303.404 160.653 303.404 160.653L306.031 142.689L292.017 137.299L290.265 79.8127Z" fill="#2F2E41"/>
<path d="M332.254 55.706C345.041 55.706 355.406 45.0759 355.406 31.9629C355.406 18.8499 345.041 8.21973 332.254 8.21973C319.467 8.21973 309.102 18.8499 309.102 31.9629C309.102 45.0759 319.467 55.706 332.254 55.706Z" fill="#FFB6B6"/>
<path d="M315.649 53.0402C312.875 53.2944 308.348 46.018 308.549 38.9711C308.679 34.4377 304.841 33.5463 304.556 27.6999C304.39 24.2932 309.493 23.2311 309.843 20.4987C310.478 15.548 313.593 12.2167 313.982 11.8117C317.338 8.31582 319.707 9.45228 323.654 5.40067C326.031 2.96141 325.422 2.29313 327.022 1.21119C331.641 -1.91137 339.941 1.47289 344.904 6.03162C346.622 7.60912 353.024 5.885 355.82 10.3397C359.115 15.5882 358.35 26.2917 356.937 27.7043C356.079 28.5625 354.118 26.4658 348.805 25.1202C343.886 23.8743 348.527 30.0355 342.84 29.0016C336.115 27.7789 334.799 25.6809 332.28 26.9392C329.618 28.2695 327.538 32.3884 328.142 35.6263C328.442 37.2331 329.31 38.129 328.82 38.946C327.926 40.4377 326.9 38.9748 325.753 40.4718C324.419 42.213 327.734 46.6799 327.11 47.1113C326.984 47.1982 326.603 47.1869 323.025 43.6574C321.596 42.2481 321.177 41.3826 320.897 41.5155C320.445 41.7305 317.478 44.5644 318.611 46.8024C320.374 50.2851 318.118 50.3936 318.611 52.7382C319.12 55.157 317.412 52.8787 315.649 53.0402Z" fill="#2F2E41"/>
<path d="M340.26 168.399C333.434 172.053 329.739 178.627 332.007 183.082C334.276 187.536 341.647 188.185 348.475 184.529C351.222 183.106 353.597 181.03 355.402 178.474L384.134 162.618L376.591 148.949L349.067 166.032C345.989 166.088 342.969 166.9 340.26 168.399Z" fill="#FFB6B6"/>
<path d="M362.964 83.4057C362.964 83.4057 370.847 78.0163 376.102 92.388C380.248 103.726 387.938 137.147 390.999 150.75C391.812 154.362 390.636 158.134 387.934 160.596L384.423 163.797L367.343 176.822L355.698 159.444L369.842 150.699L353.712 114.816L362.964 83.4057Z" fill="#2F2E41"/>
<path d="M585.814 66.5316C598.645 66.5316 609.047 55.8645 609.047 42.7059C609.047 29.5473 598.645 18.8801 585.814 18.8801C572.982 18.8801 562.581 29.5473 562.581 42.7059C562.581 55.8645 572.982 66.5316 585.814 66.5316Z" fill="#FF6884"/>
<path d="M551.539 191.522L525.336 189.809L523.923 68.978C523.889 66.0452 525.029 63.1733 527.052 61.0992L555.123 32.3114C559.053 28.2819 565.238 27.9907 569.51 31.6358L599.974 57.6241C602.459 59.7442 603.863 62.8614 603.825 66.1765L602.778 157.047L616.019 175.906L616.047 175.946L618.29 195.885L551.539 191.522Z" fill="#E6E6E6"/>
<path d="M555.942 60.4456V54.8426C555.942 53.3637 557.116 52.1604 558.558 52.1604H566.234C567.676 52.1604 568.85 53.3637 568.85 54.8426V60.4456C568.85 61.9245 567.676 63.1278 566.234 63.1278H558.558C557.116 63.1278 555.942 61.9246 555.942 60.4456Z" fill="#2F2E41"/>
<path d="M539.716 103.937V83.2066C539.716 81.7277 540.89 80.5244 542.332 80.5244H553.696C555.138 80.5244 556.311 81.7277 556.311 83.2066V103.937C556.311 105.416 555.138 106.619 553.696 106.619H542.332C540.89 106.619 539.716 105.416 539.716 103.937Z" fill="#3F3D56"/>
<path d="M565.404 152.463C564.031 152.413 562.923 151.27 562.882 149.861L562.308 129.824C562.283 128.969 562.644 128.174 563.298 127.642C563.952 127.111 564.79 126.934 565.596 127.153L566.171 127.311C567.314 127.624 568.112 128.689 568.112 129.902V149.782C568.112 150.516 567.828 151.202 567.313 151.712C566.821 152.199 566.18 152.464 565.499 152.464C565.468 152.464 565.436 152.464 565.404 152.463Z" fill="#3F3D56"/>
<path d="M530.558 151.712C530.043 151.202 529.759 150.516 529.759 149.782V129.902C529.759 128.689 530.558 127.624 531.701 127.311L532.276 127.153C533.082 126.934 533.919 127.111 534.573 127.642C535.227 128.174 535.588 128.969 535.564 129.824L534.989 149.861C534.949 151.27 533.841 152.413 532.467 152.463C532.435 152.464 532.404 152.464 532.372 152.464C531.692 152.464 531.051 152.199 530.558 151.712Z" fill="#3F3D56"/>
<path d="M541.56 149.698V128.907C541.56 127.44 542.681 126.262 544.112 126.226L554.441 125.968C555.872 125.947 557.077 127.1 557.119 128.571L557.714 149.62C557.734 150.351 557.472 151.042 556.975 151.567C556.479 152.091 555.812 152.38 555.099 152.38H544.176C542.733 152.38 541.56 151.177 541.56 149.698Z" fill="#3F3D56"/>
<path d="M602.611 163.904L610.706 178.664L611.635 195.262L618.082 195.682L615.869 176.017L602.593 157.107C601.447 159.222 601.454 161.796 602.611 163.904Z" fill="#CCCCCC"/>
<path d="M611.376 190.512L585.102 190.88L585.107 191.258L611.382 190.89L611.376 190.512Z" fill="#3F3D56"/>
<path d="M609.783 187.174L584.87 187.374L584.873 187.752L609.786 187.552L609.783 187.174Z" fill="#3F3D56"/>
<path d="M608.489 183.763L584.659 184.241L584.666 184.619L608.497 184.142L608.489 183.763Z" fill="#3F3D56"/>
<path d="M607.749 180.371L584.865 181.151L584.877 181.529L607.762 180.75L607.749 180.371Z" fill="#3F3D56"/>
<path d="M606.643 177.351L584.656 178.144L584.669 178.522L606.656 177.73L606.643 177.351Z" fill="#3F3D56"/>
<path d="M605.175 174.693H583.759V175.071H605.175V174.693Z" fill="#3F3D56"/>
<path d="M604.066 172.039L583.253 172.289L583.258 172.667L604.07 172.417L604.066 172.039Z" fill="#3F3D56"/>
<path d="M602.955 169.394L582.789 170.081L582.801 170.459L602.968 169.772L602.955 169.394Z" fill="#3F3D56"/>
<path d="M602.221 166.761L582.307 167.12L582.313 167.498L602.227 167.139L602.221 166.761Z" fill="#3F3D56"/>
<path d="M600.743 164.141L581.675 164.752L581.686 165.131L600.754 164.52L600.743 164.141Z" fill="#3F3D56"/>
<path d="M600.01 161.835L581.11 162.024L581.113 162.402L600.013 162.213L600.01 161.835Z" fill="#3F3D56"/>
<path d="M579.729 154.047V128.4C579.729 126.921 580.902 125.718 582.344 125.718H594.446C595.888 125.718 597.061 126.921 597.061 128.4V154.047C597.061 155.526 595.888 156.729 594.446 156.729H582.344C580.902 156.729 579.729 155.526 579.729 154.047Z" fill="#2F2E41"/>
<path d="M551.538 191.522L530.116 190.122L529.943 190.111V173.109C529.943 170.959 531.649 169.209 533.746 169.209H554.906C557.002 169.209 558.708 170.959 558.708 173.109V191.522H558.524L551.538 191.522Z" fill="#CCCCCC"/>
<path d="M581.204 107.53V87.9342C581.204 86.4552 582.377 85.252 583.819 85.252H587.808C589.25 85.252 590.423 86.4552 590.423 87.9342V107.53C590.423 109.009 589.25 110.212 587.808 110.212H583.819C582.377 110.212 581.204 109.009 581.204 107.53Z" fill="#3F3D56"/>
<path d="M585.26 193.413L584.154 176.773L580.835 160.889L579.913 156.54C578.019 155.219 575.467 156.689 575.582 159.035L575.672 160.889L578.991 176.773L580.098 193.413" fill="#CCCCCC"/>
<path d="M510.785 157.854L518.88 172.613L519.81 189.212L526.256 189.631L524.043 169.966L510.767 151.056C509.621 153.171 509.628 155.745 510.785 157.854Z" fill="#CCCCCC"/>
<path d="M307.41 175.878L307.457 175.124L643 197.346L641.663 219.102L307.41 175.878Z" fill="#CCCCCC"/>
<path d="M57.1871 51.037C70.0183 51.037 80.4201 40.3699 80.4201 27.2113C80.4201 14.0527 70.0183 3.3855 57.1871 3.3855C44.3559 3.3855 33.9541 14.0527 33.9541 27.2113C33.9541 40.3699 44.3559 51.037 57.1871 51.037Z" fill="#FF6884"/>
<path d="M24.7109 180.391L26.9544 160.451L26.9825 160.412L40.223 141.553L39.1763 50.6819C39.1381 47.3668 40.5417 44.2495 43.027 42.1294L73.4908 16.1411C77.7634 12.4961 83.9484 12.7873 87.878 16.8168L115.95 45.6046C117.972 47.6787 119.112 50.5506 119.078 53.4834L117.665 174.314L91.4622 176.027L24.7109 180.391Z" fill="#E6E6E6"/>
<path d="M84.4426 47.6334H76.7662C75.324 47.6334 74.1509 46.4302 74.1509 44.9512V39.3482C74.1509 37.8693 75.324 36.666 76.7662 36.666H84.4426C85.8848 36.666 87.0581 37.8693 87.0581 39.3482V44.9512C87.0581 46.4302 85.8848 47.6334 84.4426 47.6334Z" fill="#2F2E41"/>
<path d="M100.669 91.1249H89.3047C87.8626 91.1249 86.6895 89.9217 86.6895 88.4427V67.7122C86.6895 66.2333 87.8626 65.03 89.3047 65.03H100.669C102.111 65.03 103.284 66.2333 103.284 67.7122V88.4427C103.284 89.9217 102.111 91.1249 100.669 91.1249Z" fill="#3F3D56"/>
<path d="M77.501 136.97C76.8203 136.97 76.1794 136.705 75.6871 136.217C75.172 135.707 74.8882 135.022 74.8882 134.288V114.408C74.8882 113.194 75.6866 112.129 76.8297 111.816L77.4043 111.659C78.2106 111.439 79.0481 111.617 79.7021 112.148C80.3561 112.679 80.7171 113.474 80.6926 114.329L80.1181 134.366C80.0774 135.775 78.9698 136.918 77.5962 136.968C77.5643 136.969 77.5326 136.97 77.501 136.97Z" fill="#3F3D56"/>
<path d="M110.629 136.97C110.597 136.97 110.565 136.969 110.533 136.968C109.16 136.918 108.052 135.775 108.011 134.366L107.437 114.329C107.412 113.474 107.773 112.679 108.427 112.148C109.081 111.617 109.918 111.439 110.725 111.659L111.3 111.816C112.443 112.129 113.241 113.194 113.241 114.408V134.288C113.241 135.022 112.958 135.707 112.442 136.217C111.95 136.704 111.309 136.97 110.629 136.97Z" fill="#3F3D56"/>
<path d="M98.8251 136.885H87.9012C87.1883 136.885 86.522 136.597 86.0254 136.072C85.5284 135.548 85.2662 134.856 85.2868 134.125L85.8817 113.077C85.9237 111.605 87.1283 110.453 88.56 110.473L98.8889 110.731C100.32 110.767 101.441 111.945 101.441 113.413V134.203C101.441 135.682 100.267 136.885 98.8251 136.885Z" fill="#3F3D56"/>
<path d="M40.4076 141.613L27.1316 160.522L24.9189 180.188L31.3652 179.768L32.2945 163.169L40.3901 148.41C41.5468 146.301 41.5534 143.728 40.4076 141.613Z" fill="#CCCCCC"/>
<path d="M31.6242 175.017L31.6191 175.396L57.894 175.764L57.8991 175.386L31.6242 175.017Z" fill="#3F3D56"/>
<path d="M33.2177 171.68L33.2148 172.058L58.1275 172.257L58.1304 171.879L33.2177 171.68Z" fill="#3F3D56"/>
<path d="M34.5106 168.269L34.5034 168.647L58.3337 169.125L58.3409 168.746L34.5106 168.269Z" fill="#3F3D56"/>
<path d="M35.2505 164.877L35.2383 165.255L58.123 166.034L58.1353 165.656L35.2505 164.877Z" fill="#3F3D56"/>
<path d="M36.3577 161.857L36.3447 162.235L58.3321 163.028L58.345 162.649L36.3577 161.857Z" fill="#3F3D56"/>
<path d="M59.2416 159.198H37.8262V159.577H59.2416V159.198Z" fill="#3F3D56"/>
<path d="M38.935 156.545L38.9307 156.923L59.743 157.173L59.7474 156.795L38.935 156.545Z" fill="#3F3D56"/>
<path d="M40.0454 153.9L40.0332 154.278L60.2001 154.965L60.2123 154.586L40.0454 153.9Z" fill="#3F3D56"/>
<path d="M40.7794 151.266L40.7729 151.644L60.6873 152.003L60.6938 151.625L40.7794 151.266Z" fill="#3F3D56"/>
<path d="M42.2576 148.647L42.2461 149.025L61.3141 149.636L61.3257 149.258L42.2576 148.647Z" fill="#3F3D56"/>
<path d="M42.9914 146.34L42.9878 146.718L61.8877 146.908L61.8913 146.529L42.9914 146.34Z" fill="#3F3D56"/>
<path d="M60.6565 141.235H48.5547C47.1126 141.235 45.9395 140.031 45.9395 138.553V112.906C45.9395 111.427 47.1126 110.223 48.5547 110.223H60.6565C62.0987 110.223 63.272 111.427 63.272 112.906V138.553C63.272 140.031 62.0987 141.235 60.6565 141.235Z" fill="#2F2E41"/>
<path d="M84.4764 176.028H84.292V157.614C84.292 155.464 85.9978 153.715 88.0945 153.715H109.254C111.351 153.715 113.057 155.464 113.057 157.614V174.616L112.884 174.628L91.4616 176.027L84.4764 176.028Z" fill="#CCCCCC"/>
<path d="M59.1811 94.7176H55.1924C53.7503 94.7176 52.5771 93.5144 52.5771 92.0356V72.4395C52.5771 70.9606 53.7503 69.7573 55.1924 69.7573H59.1811C60.6233 69.7573 61.7966 70.9606 61.7966 72.4395V92.0356C61.7966 93.5144 60.6233 94.7176 59.1811 94.7176Z" fill="#3F3D56"/>
<path d="M62.9031 177.919L64.0095 161.279L67.3284 145.395L67.4188 143.541C67.5332 141.194 64.982 139.724 63.0875 141.046L62.1656 145.395L58.8466 161.279L57.7402 177.919" fill="#CCCCCC"/>
<path d="M132.233 135.562L118.957 154.471L116.745 174.137L123.191 173.717L124.12 157.118L132.216 142.359C133.372 140.25 133.379 137.677 132.233 135.562Z" fill="#CCCCCC"/>
<path d="M1.33783 203.607L0.000488281 181.851L335.544 159.629L335.591 160.384L1.33783 203.607Z" fill="#CCCCCC"/>
</g>
<defs>
<clipPath id="clip0_124_491">
<rect width="643" height="412" fill="white"/>
</clipPath>
</defs>
</svg>
